<?xml version="1.0" encoding="UTF-8" standalone="no"?>
<svg
   xmlns:dc="http://purl.org/dc/elements/1.1/"
   xmlns:cc="http://creativecommons.org/ns#"
   xmlns:rdf="http://www.w3.org/1999/02/22-rdf-syntax-ns#"
   xmlns:svg="http://www.w3.org/2000/svg"
   xmlns="http://www.w3.org/2000/svg"
   xmlns:sodipodi="http://sodipodi.sourceforge.net/DTD/sodipodi-0.dtd"
   xmlns:inkscape="http://www.inkscape.org/namespaces/inkscape"
   width="210mm"
   height="297mm"
   viewBox="0 0 210 297"
   version="1.1"
   id="svg8"
   inkscape:version="1.0.2 (e86c870879, 2021-01-15)"
   sodipodi:docname="mountain_logo.svg">
  <defs
     id="defs2" />
  <sodipodi:namedview
     id="base"
     pagecolor="#ffffff"
     bordercolor="#666666"
     borderopacity="1.0"
     inkscape:pageopacity="0.0"
     inkscape:pageshadow="2"
     inkscape:zoom="0.49165125"
     inkscape:cx="289.81401"
     inkscape:cy="808.50754"
     inkscape:document-units="mm"
     inkscape:current-layer="layer1"
     inkscape:document-rotation="0"
     showgrid="false"
     inkscape:window-width="1422"
     inkscape:window-height="1019"
     inkscape:window-x="488"
     inkscape:window-y="27"
     inkscape:window-maximized="0" />
  <metadata
     id="metadata5">
    <rdf:RDF>
      <cc:Work
         rdf:about="">
        <dc:format>image/svg+xml</dc:format>
        <dc:type
           rdf:resource="http://purl.org/dc/dcmitype/StillImage" />
        <dc:title></dc:title>
      </cc:Work>
    </rdf:RDF>
  </metadata>
  <g
     inkscape:label="Layer 1"
     inkscape:groupmode="layer"
     id="layer1">
    <path
       style="fill:#8d6c42;stroke:none;stroke-width:0.236617"
       d="m 47.336319,96.858631 c -3.983395,-3.150987 -5.144865,5.094099 -9.380293,4.634669 -0.958887,-0.104 -1.399264,-1.674743 -2.006046,-2.264405 -1.533838,-1.490868 -3.956141,-2.380705 -5.736698,-3.614588 -0.596417,-0.413002 -1.364299,-1.037717 -2.160162,-0.855249 -1.023759,0.234939 -1.467272,1.563539 -1.954673,2.33173 -1.516721,2.391611 -2.743308,4.700822 -4.03887,7.196702 -0.513689,0.98966 -1.107454,2.22239 -2.000741,2.94438 -0.860015,0.69506 -1.783454,0.65026 -2.35382,1.70305 -0.833718,1.53917 -1.144104,3.29957 -1.909333,4.87077 -0.818533,1.68101 -2.124705,3.13148 -2.778037,4.87518 -0.621493,1.6587 -0.705898,3.80123 -1.682879,5.30534 -0.463529,0.71363 -1.3652647,0.79302 -1.9903764,1.32767 -1.0565634,0.90283 -1.8637571,2.53741 -2.2833878,3.81378 h 0.241167 l 0.7235084,-0.69645 -1.4470171,3.71441 h 0.241166 l 2.1705255,-3.25011 -2.1705255,5.33947 h 0.2411757 l 1.2058414,-3.01796 h 0.2411757 l -2.4117015,6.50023 h 0.2411757 l 1.9293501,-3.94658 h 0.2411757 l -1.6881928,4.87518 c 1.7004888,-1.4022 2.7659762,-4.06705 3.6175429,-6.03593 h 0.241175 l -3.8587179,9.28605 h 0.2411757 l 4.0998752,-4.41088 -2.6528581,4.17872 3.8587101,-5.10732 -0.482343,3.25012 h 0.241176 l -1.205851,2.08936 2.170526,-0.23216 -1.688184,1.3929 0.482333,0.46431 v 1.39291 l -0.964675,0.4643 1.688184,-0.23216 -1.205842,1.85722 0.723509,-0.23216 -1.205851,3.01796 0.723509,-0.69645 h 0.241166 l 1.205851,0.69645 -0.723508,1.62506 -1.205852,-0.23215 v 0.23215 h 0.723509 l -1.447017,1.85721 1.92936,-0.69645 -1.447018,1.3929 v 0.23216 c 1.39034,-0.0481 2.668784,0.18989 3.376378,-1.16075 l -1.205852,-0.23216 3.617544,-2.08936 v -0.23215 l -2.411692,0.23215 v -0.92861 l -0.964685,0.46431 3.376377,-2.08936 -0.482342,0.23216 0.723509,-0.46431 v -0.23215 l -0.482333,-0.46431 H 16.22544 l -0.241166,0.92861 -0.241166,-0.69645 -1.929361,0.4643 -0.482342,-0.69646 3.376377,-1.16075 v -0.23215 l -2.170526,-0.4643 v -0.23216 l 4.099885,-2.78581 -1.20585,0.69645 -0.241166,-0.9286 -1.205851,-0.4643 1.688183,-0.9286 -0.964675,0.23214 1.688183,-1.62505 H 16.22544 l 1.688193,-1.16076 -0.723508,-0.46429 0.723508,-0.46431 v -0.4643 l -0.241176,-0.23215 -0.723508,0.23215 1.447016,-2.32151 -1.20584,-0.23215 1.929349,-2.32151 v -0.23215 l 0.723508,-3.71442 h 0.482342 l 0.964676,5.33947 1.205852,1.39291 -0.72351,1.16075 c 0.600273,0.16739 1.155682,0.33454 0.72351,0.92861 1.547347,1.41171 -0.546249,2.71639 -0.964676,4.17871 l 1.929351,0.46431 -1.447018,0.23215 4.099887,0.4643 v 0.23215 H 25.14872 v 0.46431 l 0.964676,-0.46431 0.723508,0.23216 v 0.23215 c -1.373942,0.31967 -2.236128,0.49726 -3.135202,1.62505 l 0.964676,0.69645 -0.723508,-0.23214 0.241166,0.69645 -0.482334,-0.46431 -1.20585,0.23216 -0.241168,1.62506 3.858712,-0.23216 v 0.4643 l -0.72351,0.23216 v -0.4643 l -0.964674,0.4643 v 0.69645 c 0.93043,0.40394 1.651523,0.82298 1.205842,1.85721 h -0.241168 c -0.768127,-0.92721 -1.55916,0.17527 -1.929359,0.92861 l 3.135211,1.62505 v 0.23215 l -0.964684,0.69646 c -0.83589,-0.17295 -1.409391,-0.24144 -1.929352,0.46429 l 2.65286,1.16077 H 25.14872 v 0.23214 l 1.929351,0.23215 c 0.06226,1.6102 -1.695176,2.0824 -2.894035,1.16076 l -1.205842,0.9286 4.341052,0.23216 v 0.69645 c -0.837829,0.13395 -1.0667,0.35426 -1.20585,1.16075 H 23.94287 l -0.72351,1.16076 c 1.525162,0.0132 6.803883,1.59325 6.752746,-1.16076 l -0.241166,0.69645 -1.205851,-0.4643 1.447017,-2.32151 -0.964675,0.46431 h -0.241167 c -0.175811,-0.79002 -0.67672,-0.69344 -1.447018,-0.69646 v -0.46431 l 2.411694,-0.23214 c -0.256607,-0.88682 -1.046674,-1.01682 -1.92936,-1.16076 v -0.23215 l 4.341053,-3.48227 -1.205841,0.46431 -0.964686,-0.69645 -0.241166,0.9286 -0.723509,-0.69646 -1.205851,0.23216 1.205851,-1.39291 -1.205851,0.4643 -0.723509,-0.69645 0.241175,0.46431 -0.723508,-0.92861 3.617544,-0.92861 -0.241176,-0.4643 -2.170526,-0.23214 v -0.23216 l 4.341053,-1.39291 v -0.23215 l -1.688184,-0.9286 2.411693,-1.16076 v -0.23215 h -1.92935 l 1.688184,-1.3929 -1.447018,-0.23215 2.170526,-2.32152 -1.92936,-0.9286 1.688194,-0.69645 -0.482342,-0.46431 1.447017,-4.64301 0.723509,3.71441 h 0.723509 l -0.241167,1.85722 0.72351,-0.23217 0.241166,2.78582 -0.723509,1.3929 c 0.882923,0.22566 1.427001,0.45642 1.447018,1.39291 h -0.964675 v 0.23215 h 2.170526 l -0.964685,0.69646 -0.482333,1.62506 0.723509,0.69645 -0.964685,0.4643 h -1.205842 l 0.241167,0.69645 2.894035,-0.23215 -1.205851,1.39291 2.170527,0.23215 v 0.23215 l -2.170527,0.9286 v 1.39291 h 1.447018 v 0.23216 l -1.447018,1.16075 1.688193,0.92861 h -1.20585 l 0.241166,0.69645 -0.241166,0.23214 -0.723509,-0.23214 2.411693,0.9286 v 0.9286 H 38.17188 c 1.464136,0.84434 5.128467,0.70877 6.51158,-0.23215 l -2.170527,-0.23214 -0.964684,-0.23217 -0.241167,-0.69645 -1.688184,0.46431 0.241166,-1.39291 c 2.340313,0.92025 3.929854,-0.8571 6.270413,-1.16075 v -0.23216 l -0.964684,-0.23214 0.241175,-0.69645 h -0.241175 -0.241167 l 0.241167,0.4643 h -0.241167 l -0.723509,-0.23216 v 0.46431 l -0.241166,-0.46431 v -0.23214 l -1.205851,0.23214 -0.241167,-0.69645 -1.447018,0.23215 c -0.265048,-0.77097 -0.624628,-0.86755 -1.447017,-0.92861 v -0.23214 c 2.173416,-0.25862 5.034655,0.77561 6.511579,-1.39291 l -0.723509,0.23215 v -0.9286 l -1.205851,0.23214 0.241167,0.69646 -1.688184,-0.69646 1.447017,-0.9286 -2.411693,-1.16075 v 0.23215 h 0.482333 v 0.23215 l -1.688184,-0.23215 -0.241167,-0.69646 v -0.23214 l 4.341054,-0.92861 v -0.4643 l -1.447018,0.23215 -1.447018,-0.69646 v -0.23214 l 5.546895,-2.55367 c -1.254078,0 0.235142,-1.39291 1.205852,-1.39291 v -0.23214 c -1.198131,-0.0922 -1.688914,0.37028 -2.170527,1.3929 l -0.723509,-0.23214 -0.964675,0.23214 v -1.62505 l -2.411703,-0.92861 v -0.46429 l 6.029247,-2.78582 v -0.23215 l -1.447018,0.23215 v -0.92861 l -1.92936,-0.69645 v -0.4643 l 3.135202,-0.46431 v -0.23214 l -1.929351,-0.46431 v -0.23215 c 1.02159,-0.13232 2.674809,-0.18502 2.65286,-1.3929 h -0.241166 l 0.241166,0.4643 h -0.241166 l -0.72351,-0.4643 -0.723508,0.23215 -0.241167,-0.23215 v -0.4643 l 2.65286,-1.16075 -1.447018,0.23214 0.964685,-0.9286 -2.170527,-0.69645 1.447018,-1.39291 h -1.447018 v -0.23215 l 2.894036,-1.62506 c -2.341279,0.19988 -0.01687,-6.18381 0.482333,-7.66098 h 0.241175 c 0.171947,0.52442 1.243469,4.40134 1.447018,2.78581 h 0.241167 l -0.241167,1.85721 0.964675,1.16075 -0.241166,1.62506 h 0.241166 l 0.241168,-0.4643 -1.447018,2.78581 2.411702,0.23215 -1.205852,1.62506 1.688185,1.62505 -0.723509,0.69646 h -0.241166 v -0.4643 h -0.241167 l 0.241167,0.69645 -0.482342,-0.69645 h -0.241168 l -0.482342,1.3929 2.894036,0.23215 v 0.23215 l -2.65286,1.16076 c 1.82059,-0.40069 3.263023,-0.63192 5.064562,0 l -1.447018,0.69645 c 0.02024,-0.47219 -0.261429,-0.47219 -0.241176,0 -1.336314,-0.27602 -1.84736,0.17899 -2.652859,1.16075 h 1.929351 l -1.929351,2.08936 h 2.652859 l -1.447017,1.85722 1.92936,1.16074 -1.447018,0.69646 0.241167,0.4643 -1.205842,-0.92859 -0.723509,1.16074 c 2.041977,0.15137 4.389764,0.9957 5.064562,3.01797 l -1.447018,-0.4643 c -0.207896,1.25593 -0.964921,1.4925 -2.170526,1.16075 l -0.723509,1.62506 c 2.296169,-0.53836 3.993768,0.98525 4.823386,3.01796 h -1.447018 v 0.92861 l -1.205842,-0.23216 v 0.23216 l 4.099878,1.62505 -1.205842,-0.23214 0.241166,0.69645 -0.482342,-0.46431 -1.929351,-0.23214 v 0.23214 l 0.241167,0.69645 H 56.98311 l -0.241175,-1.16075 c -1.027862,0.16738 -1.377079,0.69831 -1.688185,1.62506 l 3.376378,1.39291 -1.205851,0.9286 0.241166,1.16076 3.376378,0.46429 0.241166,1.16076 H 59.63597 c 0.774636,1.28774 2.104689,1.90503 3.617545,1.62505 v 0.46431 l 1.92936,-1.16076 -4.099888,-0.4643 v -0.23215 l 2.170528,-0.9286 -0.241168,-0.23215 -0.241166,0.46429 -1.447018,-0.46429 -1.20585,-0.92861 v -0.23215 l 4.341052,-1.85721 v -0.23215 l -0.241166,-0.46431 -0.964684,-0.23214 v 0.23214 l 0.482342,0.46431 c -0.863626,-0.74497 -0.787661,-1.14241 -0.241167,-2.08936 h -1.447017 v -0.23214 h 0.723508 v -0.23216 h -1.447018 v -0.23215 l 3.858712,-0.4643 -0.964676,-0.4643 0.964676,-1.85722 -1.92936,-0.4643 h -0.241168 l -0.723508,0.4643 2.411693,-1.16075 v -0.23214 h -0.723509 l -2.411693,-1.62507 1.688185,-0.46429 -0.964676,-0.92861 h 3.135202 v -0.92861 l -0.964676,-0.23215 -0.723508,0.4643 0.241166,-3.25011 c 1.000379,-0.62309 1.75065,-1.33371 0.482342,-2.08936 v -0.23214 l 0.964676,-0.92862 -1.205842,-0.23215 1.688184,-1.62505 c -0.405165,0 -0.809126,-0.14439 -0.723508,-0.69645 0.100812,-0.64933 1.018463,-0.74127 1.165571,-1.39291 0.302183,-1.33789 -0.445919,-3.27496 1.004955,-4.17872 l 0.723508,3.48227 0.241168,-0.69646 h 0.241175 l -0.482343,3.01796 0.964676,-0.23214 0.482342,1.16075 h -0.964675 v 1.16075 l 1.688185,0.69646 -0.72351,-0.23215 -0.964675,0.46429 1.688185,0.69646 -1.205852,1.16076 1.205852,0.69645 -0.964676,0.69645 0.482333,-0.4643 h 0.241175 l 0.482334,0.69645 -0.482334,-0.23215 0.241168,0.46431 c -1.021116,0.21427 -1.180767,0.70109 -1.447018,1.62505 l 2.170526,-0.23215 v 0.23215 l -0.964676,1.16076 1.929352,0.4643 c -1.180037,8.7e-4 -2.097689,0.634 -2.65286,1.62506 l 1.447018,-0.23216 -0.964685,0.69646 -0.482333,1.16075 0.964676,0.92861 0.964675,-0.23216 0.241175,0.92861 h -0.964684 l 0.984701,2.63677 -1.949377,1.3098 c 1.455221,0.0766 2.304856,0.73267 3.135202,1.85721 l -0.723508,0.23215 -0.241167,-0.69646 h -1.447017 l 2.170526,2.08937 -2.170526,0.4643 -0.482343,1.16075 c 3.113016,0.44874 4.631186,0.6354 7.717431,-0.23215 l -0.482342,-0.9286 1.447017,-0.23216 v -0.23214 l -0.964675,-0.23215 v -0.23216 l 0.723509,-0.46429 -3.376378,-1.16077 -0.482333,0.69646 -0.723508,-0.46431 v -0.23215 l 0.482332,-0.4643 -0.964675,-0.46429 6.270413,-2.08936 v -0.23216 l -2.894036,-1.62506 0.72351,1.39291 -1.92936,-0.9286 v -0.92861 l 2.170526,-0.92861 -4.099886,0.23216 v -0.23216 c 1.501279,-0.64188 3.392538,-0.99592 4.099886,-2.55366 h -1.92936 l 4.341053,-2.08936 0.723509,-2.55365 -1.205842,0.46429 0.241167,0.69646 -1.447018,0.23215 v -0.23215 l 0.723509,-0.23215 -0.723509,-0.23215 0.482342,-0.92861 c -1.311723,0.0549 -3.031509,-0.35867 -2.894035,-1.8572 1.284222,0.19339 3.051753,-0.10494 3.858711,-1.16076 H 78.4472 v -0.23214 h 2.652869 l -1.447017,-0.92862 2.411693,-1.62505 -0.482334,-0.4643 h -0.241175 l -0.964675,0.69645 0.241166,-0.69645 h -1.688184 l 3.135202,-1.39291 v -0.23215 l -0.482334,-0.69646 h -0.241175 l -0.241167,0.46431 -0.241166,-0.69645 c 0.770534,-0.4151 1.145071,-0.75705 0.964675,-1.62506 h -0.241167 v 0.9286 h -0.241175 l -0.241167,-0.4643 -1.205851,0.23215 c 0.501393,-0.46523 1.251435,-0.96737 0.241176,-1.16075 l 1.205842,-1.39291 -0.964675,0.46431 c -0.186185,-1.1264 0.253708,-1.4932 1.20585,-2.08936 l 1.205843,-4.64302 h 0.482342 c 0.211023,1.07718 -0.06873,2.8912 1.205851,3.25011 v 2.78582 l 0.723509,0.23214 -0.482342,1.39291 1.205851,0.23215 -0.964685,1.16075 c 0.387801,1.11363 1.385281,0.73801 2.411703,0.69646 v 0.23214 l -0.482343,0.92861 h 0.964685 v 0.23215 l -2.652869,1.16076 -0.964685,1.8572 2.894045,-0.23214 -1.447027,1.16074 v 0.23217 l 4.099887,-0.69646 -0.723509,0.46429 -0.482334,0.69646 0.241167,-0.46429 h -0.241167 c -1.154961,0.43899 -2.2055,1.18141 -2.652868,2.3215 l 2.652868,-0.23214 -2.170535,1.3929 c 0.406377,1.17515 1.583288,0.72756 2.652869,0.9286 l -0.723509,0.4643 v 0.23215 l 1.688193,0.23215 -0.482342,0.92861 h -0.241166 c -1.021354,-0.98943 -2.402779,1.01613 -3.135212,1.62506 v 0.23214 c 1.395408,-0.40719 3.276778,-0.42854 4.099887,0.92861 l -0.723509,-0.23215 v 1.16075 l -0.482342,-0.4643 H 88.8175 l -2.411702,1.39291 h 3.376378 l -0.723509,1.16075 c 1.076344,-0.045 1.846877,-0.22518 2.170527,0.92861 -1.077302,0.18084 -1.545415,0.90377 -1.929351,1.8572 l -1.447018,-0.46429 0.241166,0.69645 -1.688193,0.23215 v 0.23215 c 1.462695,0.33523 5.06674,0.84689 6.029247,-0.4643 2.233712,1.03493 3.731139,0.0945 6.029224,-0.23216 l -0.964674,-1.62505 0.482347,0.9286 -1.447011,-0.23214 0.24116,0.4643 h -0.24116 l -0.482337,-0.69646 h 1.205844 v -0.23215 l -1.929358,-0.23215 v 0.4643 l -1.205851,-0.4643 v -0.23215 c 1.324985,-0.6607 5.330307,-2.42482 5.788044,-3.71441 -0.846487,0.0882 -1.388164,0.11236 -1.688171,0.92859 h -0.24116 l -0.723504,-0.23215 -1.447014,-0.9286 v 0.23216 h 0.48233 v 0.23214 h -1.688183 l 0.241167,-0.9286 -0.964676,0.69646 v -0.92861 l -0.964675,-0.4643 c 2.000503,-0.50378 5.612722,-2.14903 6.270389,-4.17872 l -1.688181,-0.46431 v -0.23215 c 1.072474,0.19965 1.646691,0.38956 2.411678,-0.4643 l -1.205834,0.69645 1.205834,-2.08936 c -0.731207,0.0499 -0.951637,-0.0307 -1.205834,-0.69645 l -2.411685,0.92861 2.652852,-3.01797 h -0.241167 l -0.482337,0.4643 -2.652856,-0.4643 0.482348,-0.69645 -0.723514,0.4643 -0.241167,-0.69645 -0.723508,0.23215 v -0.23215 l 6.993885,-2.32151 v -0.23215 l -0.48234,-0.4643 0.48234,0.23214 v -0.23214 c -0.64899,-0.15508 -1.10721,-0.23006 -1.20584,0.4643 l -1.447011,-0.23216 2.411681,-2.08935 h -0.96467 l 0.24116,-0.69645 -0.482337,0.4643 h -1.929331 c 0.892077,-1.06651 3.645718,-3.23851 1.688171,-4.41087 v -1.16075 h -0.241167 l 0.241167,0.4643 h -0.241167 l -0.964677,-0.92861 c 1.491134,-0.39187 2.740871,-0.81322 3.617521,-2.08936 l -1.92934,-0.23215 0.48233,-1.3929 -0.723507,-0.23216 1.447017,-1.39289 c -0.45413,-1.96215 0.26841,-5.44581 1.68817,-6.96454 l 1.20584,3.71441 h 0.24118 v -1.16076 h 0.24116 v 2.32153 h -0.24116 l 0.24116,-0.69646 -0.96467,2.08936 h 0.24117 0.24116 l -0.24116,-0.46431 h 0.24116 l 0.96469,0.23215 -0.48235,0.69645 1.20585,0.46431 v 0.23215 c -0.98156,0.0664 -1.44364,0.33429 -1.92935,1.16076 l 0.48234,-0.46431 h 0.24116 l 0.72352,2.55367 -1.20586,0.69645 3.37638,-0.46431 v 0.23216 c -1.10311,0.40023 -1.8599,1.23156 -2.17052,2.3215 h 1.68818 c -0.63717,1.29982 -0.26238,1.65431 0.96468,2.32152 l -0.96468,0.23215 c -0.13361,1.68959 -1.69083,1.81774 -2.89404,2.78581 l 0.24118,-0.69645 h -0.24118 v 1.16075 l 3.61755,-0.9286 0.48234,0.4643 -0.48234,1.16075 -1.44702,-0.4643 0.24118,1.39291 c 1.82613,-0.25839 3.92599,-0.94927 5.06456,0.9286 l -1.6882,-0.4643 0.48235,1.16076 c -1.46028,-0.21892 -2.49129,0.34915 -3.1352,1.62505 l 1.92934,-0.23215 v 0.23215 l -0.96467,0.46431 0.72351,0.23214 v 0.23215 l -1.68818,0.23216 -0.24118,1.39291 -0.48233,-0.46431 -0.24118,0.23215 v 0.4643 0.23215 l 4.34106,-0.69645 -1.20584,1.16076 0.24116,0.69645 -0.72351,-0.23214 2.41169,2.7858 -1.44702,-0.23215 -0.48232,0.69645 0.24116,-0.69645 -1.92936,1.62506 c 2.00846,0.57295 6.06855,1.15471 5.30574,3.94656 -0.93237,-0.16668 -2.43751,-0.12419 -2.65287,0.92861 l -0.96467,-0.46431 0.48232,0.92861 -1.20584,0.69645 c 1.10311,0.29135 4.31838,-0.4947 2.41169,1.39291 l 1.92937,0.69646 1.20584,0.9286 v 0.46429 l -1.68819,0.23217 c 0.16496,0.79418 -0.36464,0.47543 -0.24116,0 l -0.48234,-0.23217 -0.72352,0.69646 h -0.24116 l -0.48234,-0.46429 -0.48235,1.85719 2.41171,-0.23214 0.96467,0.69645 -1.20585,0.69646 0.24118,0.69645 -2.65287,-0.23215 c 0.91379,1.60044 2.4059,2.8652 4.34105,3.01796 l -0.24117,1.62505 c 1.65177,-0.37794 3.47357,-1.30769 4.58223,-2.55366 l -0.96468,0.23216 0.48233,-0.46431 v -0.23214 h -1.92935 l 0.24117,-0.46431 h -2.4117 l 1.68819,-0.46429 v -0.23217 l -0.72351,-0.23214 v -0.46431 c 1.13157,-0.29111 2.50093,-0.45687 2.89404,-1.62505 -0.98229,0.3336 -1.61826,0.48937 -2.17053,-0.46431 0.69843,-0.20057 2.5945,-0.55251 2.95432,-1.18001 0.28603,-0.49867 -0.1992,-0.93302 -0.54263,-0.44504 l -1.92935,-0.69646 2.89404,-1.8572 v -0.23216 l -2.65287,-0.92859 4.09987,-2.08937 -1.92934,0.23215 v -0.23215 l 0.7235,-0.23215 v -0.23214 l -1.68818,0.69644 0.24117,-0.69644 -1.20585,0.23214 1.44701,-0.9286 -0.96468,-0.46431 2.89404,-2.55366 -0.72351,0.69646 h -0.24116 -2.89404 l 0.72351,-0.92861 -1.92936,-0.69645 v -0.23215 l 3.85871,-0.69645 -0.72351,-0.23215 v -0.23216 l 1.20585,-0.46429 -1.20585,-0.23216 1.6882,-1.16075 h -1.6882 l 0.24117,-0.69645 h -0.96467 l 2.65286,-1.39291 h -0.96467 l -0.24118,-0.92861 2.17052,-1.3929 -0.72351,-0.4643 -1.44701,-0.92861 2.17052,-1.62506 h -1.44701 l 1.20585,-1.3929 0.96466,-4.17872 0.96469,3.71442 0.7235,-0.46431 -0.7235,2.55366 0.7235,-0.23215 0.48234,0.23215 0.48235,1.16076 -0.24118,0.23215 -0.72351,-0.23215 -0.48233,1.16076 2.17052,-0.23216 v 0.23216 c -0.99748,0.29459 -1.36284,0.67788 -1.68819,1.62505 l 1.44702,-0.4643 -0.72351,0.4643 0.96468,1.16076 v 0.9286 l -1.20585,0.23215 0.48235,0.69645 h 1.44701 v 0.46431 l -1.20585,0.46431 v 0.23214 l 3.37638,-0.23214 -0.72351,0.69645 0.24117,-0.46431 h -0.24117 l -2.65287,1.62505 v 0.23216 l 1.20585,-0.23216 -0.96468,1.85722 3.13521,-0.46431 c -0.69844,0.75125 -1.97373,2.42923 -0.96469,3.01797 -0.98879,0.48752 -1.73907,0.99662 -1.92935,2.08936 l 2.17053,-0.46431 -0.96468,1.39291 v 0.23215 h 3.61754 l -0.72351,0.23216 h -0.24116 l 0.24116,0.92859 -0.72351,-0.23214 v 0.4643 l -1.92934,0.4643 v 1.62506 l -0.48235,-0.4643 h -0.24117 v 0.9286 l 3.85872,-0.4643 -0.24117,1.16075 c -1.13519,-0.18758 -1.67951,0.16831 -2.17053,1.16076 l 2.4117,0.46429 v 1.39291 l -2.65288,-0.46429 h -0.24116 l -1.44701,1.62505 c 1.87195,0 3.72462,-0.17875 5.30572,0.9286 l -0.72351,0.69645 -1.44702,0.23216 c 0.54795,0.81275 1.26036,0.66999 2.17053,0.4643 v 1.3929 l -0.72351,-0.46429 v 0.46429 h -0.24116 v -0.46429 l -2.17053,-0.23216 -0.72351,1.62506 6.51158,1.16076 -2.41169,0.9286 -0.72351,-0.23215 h -2.4117 v -0.69645 l -0.72352,0.46429 0.24118,-0.46429 h -0.24118 -0.24116 v 1.3929 c 2.99412,1.05234 6.02658,2.85476 9.16445,1.39291 l -0.48234,-0.69645 -0.48235,0.69645 -2.89403,-1.16075 3.85872,-1.85721 -0.72352,-1.39291 -0.48233,0.69646 h -0.24117 l 1.68818,-2.08936 v -0.23216 l -2.65286,0.4643 1.92936,-1.39291 -1.44703,-1.16075 -0.96466,0.92861 h -0.24119 l -0.96467,-0.69645 4.09989,-2.78582 -2.4117,-0.23214 h -0.24117 l -0.24116,0.46429 -0.72351,-1.39291 c 2.63502,-0.53046 4.25158,-2.81413 6.51158,-4.17871 v -0.23216 l -0.72352,-0.23214 0.24117,0.4643 -0.48234,-0.4643 h -0.24116 c -1.16992,0.71455 -2.34224,0.60823 -3.61756,0.23214 l 1.44703,-1.62505 -1.68819,-0.46431 -0.7235,0.23216 -0.48235,-0.23216 -0.48234,-0.4643 v -0.23215 l 4.58223,-1.16075 -1.92936,-0.9286 v 0.69645 l -0.72352,-0.92861 h 0.24118 l 0.24117,0.4643 4.09988,-2.08936 -0.48234,-0.9286 2.17053,-0.69645 -1.20585,-0.69645 v 0.23214 h 0.72351 v 0.23216 l -1.92936,0.23215 -0.24116,0.69645 -0.96468,-1.3929 0.7235,-0.23215 v -0.23216 l -3.61754,-1.39291 5.30573,-0.69645 -1.44701,-1.16074 2.65286,-0.69646 v -0.23216 l -0.72351,0.23216 -0.7235,-1.39291 -0.72352,0.23215 -1.20585,-0.69645 3.37638,-1.85721 -1.20585,0.23215 v -0.23215 l 1.44702,-0.69645 v -0.23216 l -1.20585,0.23216 0.24117,-0.69646 -0.48234,-0.69645 -1.68819,-0.4643 3.37637,-2.08936 -1.44701,-0.9286 1.44701,-0.69645 v -0.23216 h -0.96467 l 1.92936,-5.33947 c 0.17099,1.11456 0.42663,2.15413 1.44702,2.78581 l -0.72351,0.69646 0.48233,-0.23216 -0.48233,0.4643 v 0.23216 h 0.96468 l -0.48235,0.9286 0.72351,-0.23215 -0.24116,1.16075 0.7235,-0.23214 v 1.62505 l -0.96467,-0.23214 c 0.33957,0.42622 3.23142,2.05011 1.20584,2.3215 v 0.23215 l 1.44702,0.4643 -0.48234,0.9286 h 1.44702 l -2.17052,2.32152 0.24116,-0.69646 -1.20585,1.16076 0.48234,0.4643 2.17053,-0.23215 -1.20586,1.62506 4.0999,-0.46431 -4.0999,2.08936 v 0.23215 l 2.17053,0.23216 -0.24116,0.69646 -1.20585,0.46429 1.92936,1.3929 1.20585,0.69646 h -1.6882 v 0.69645 c -0.95116,-0.0436 -1.6209,0.26652 -1.92935,1.16076 1.73329,-0.36285 2.74017,0.0845 4.09988,1.16075 l -2.65286,0.69646 v -0.4643 h -0.24117 v 0.4643 l -0.72351,-0.23216 v 0.92861 l 6.02924,1.39291 -0.24117,0.69645 -4.09988,1.85721 -0.48234,1.39291 c 1.19475,-0.12839 1.59775,0.25095 1.68819,1.39289 l 1.68819,0.69646 -1.68819,0.23216 c -0.0417,1.28008 0.71796,1.92477 1.92935,2.32151 l -0.48234,-0.9286 0.7235,1.16074 c 1.71834,-0.19361 3.90141,-0.27649 5.06457,-1.62505 l -5.30573,-0.69646 0.48235,-0.92859 0.7235,0.23214 1.20584,-1.16075 v -0.23216 l -1.20584,-0.23214 v -0.23215 l 4.09988,-0.69646 v -0.69645 l -1.92935,-0.23216 0.24116,0.46431 h -0.24116 l -0.7235,-0.23215 0.48232,-0.23216 v -0.23214 l -2.65285,-0.69645 c 1.68336,-0.45665 3.37733,-1.047 4.58222,-2.32152 h -2.41169 v -0.23214 l 2.65285,-0.92861 v -0.23216 l -0.48233,-0.23214 0.96467,-0.92861 h -2.65287 l 0.24118,0.69645 -1.44702,-1.3929 h -0.24117 l -0.72351,0.92861 0.48234,-1.16077 -0.72351,0.23216 -0.72351,-0.92861 6.75275,-1.39291 c -0.27397,-0.79442 -0.61981,-0.87845 -1.44702,-0.69645 l -0.24116,-0.69645 -0.96468,-0.23215 2.41169,-0.69645 -0.72351,-0.69646 2.65287,-0.69645 v -0.23214 c -0.84096,-0.0441 -1.94407,-0.76448 -2.17052,0.23214 l -3.13522,-0.23214 2.65287,-1.16077 -0.96467,-0.23214 -1.20586,-0.92861 c 1.27724,0.16669 4.99052,-0.95042 5.06457,-2.32151 l 0.72351,-0.23215 v -0.23215 h -3.85871 v -0.4643 l -0.72351,0.23214 -0.48235,-1.16075 c 1.12266,-0.29064 3.06551,0.13418 3.61755,-0.9286 h -2.17053 v -0.23215 l 3.85872,-0.9286 -0.24117,-0.69645 -1.44702,-0.46431 -0.96468,0.23215 v -0.23215 l 1.44702,-0.69646 -0.48234,-0.4643 c 0.55132,-0.40557 0.82071,-0.75495 0,-0.9286 l 0.96467,-1.16076 -2.41169,-0.23214 2.65287,-0.92861 -0.48234,-0.69645 h -0.96468 l 0.72351,-0.69646 v -0.23215 c -0.68034,-1.26174 0.35717,-1.46673 0.82022,-2.57432 0.60292,-1.44165 0.75197,-3.12963 1.35031,-4.62236 h 0.24117 l 0.72351,3.48227 0.96467,-0.23215 -0.24117,2.32151 h 0.24117 l 0.48234,-0.46431 0.48234,1.39291 v 0.23215 l -1.68819,1.39291 v 0.23215 l 2.4117,-0.23215 -0.72351,2.3215 h -0.96468 l -0.48233,1.16076 2.17052,-0.23215 0.48233,0.92861 c -0.60846,0.20591 -0.87013,0.47289 -0.96467,-0.23216 h -0.24117 l 1.68819,2.32152 -2.17053,2.7858 0.24117,0.23216 2.4117,0.23214 -2.17053,0.69646 v 0.4643 l 0.24117,0.23215 4.34105,-0.23215 v 0.23215 c -1.56687,0.11376 -2.44812,1.07858 -2.65287,2.55367 h 0.96469 l -2.17053,1.39291 -0.24117,1.3929 c 0.92585,-0.24353 3.87777,-1.45884 4.09988,0 l -1.20585,-0.23216 0.24117,0.92862 -0.96467,0.46429 v 0.23216 c 0.72712,0.20893 0.94972,0.42158 0.96467,1.16074 l -0.96467,-0.46429 -0.24118,0.69645 -0.96467,-0.4643 -0.48234,1.16075 c 1.49935,0.68392 5.18491,1.69098 5.30573,3.48227 l -1.44702,-0.23216 -0.48233,0.92861 c -0.68493,-0.1386 -1.11204,-0.2528 -1.20585,0.4643 l -1.68819,0.4643 v 0.23215 l 3.85871,0.23216 -1.92936,0.23214 -0.24116,0.23216 v 0.4643 l 4.09989,1.62506 -1.20585,0.23215 -0.48235,0.4643 h -0.24117 c -0.19197,-0.86267 -0.87714,-0.69645 -1.68819,-0.69645 v 1.39291 l 1.92936,0.23215 v 0.9286 h -2.41169 l -0.48234,0.69645 1.92935,0.46431 -0.24116,1.16074 -0.96469,-0.46429 c 1.51672,1.66011 5.88985,2.69271 7.23509,0.46429 l -0.48233,0.46431 h -0.24118 l -0.48233,-0.46431 -0.96468,0.46431 h -1.20584 v -0.69645 h -1.44703 v -0.23215 c 1.82155,-0.40696 3.68387,-1.39013 4.58222,-3.01796 l -1.20585,-0.4643 -1.68818,-0.46431 c 1.43833,-0.10354 2.45728,-0.88543 3.1352,-2.08936 l -0.96467,0.46431 -2.17053,-0.46431 2.41169,-1.39291 v -0.23215 l -1.44701,-0.46429 h -0.24117 l -0.96467,0.46429 4.82338,-3.71442 h -1.20584 -0.24118 l -0.24117,-0.69645 -0.96467,0.23215 1.44702,-0.9286 v -0.69646 l -0.96469,0.23216 1.92936,-0.92861 -0.24116,-0.69645 -1.6882,0.23216 0.96469,-2.32152 -0.72351,0.23216 0.48233,-1.39291 h -0.48233 c 0.42855,-0.61474 2.28219,-1.76783 0.72351,-2.08936 l 1.92935,-5.57163 h 0.48234 l 0.24116,3.48227 0.96469,-0.23215 -0.24117,3.48226 h 1.68818 l -1.44701,1.3929 h 1.68819 l -1.68819,1.16076 v 0.23215 h 1.68819 v 0.23216 l -0.48235,0.9286 1.20585,0.46431 -0.24116,0.23214 c -0.82432,-0.38839 -1.24757,-0.34126 -1.68819,0.46431 l 1.44701,0.23215 -0.48234,1.16075 h 1.92936 c -0.5313,0.59895 -1.92598,1.55611 -1.20584,2.32152 v 0.23214 l -0.72352,0.69645 h 0.96468 l -0.96468,1.62506 1.68819,1.16076 -1.68819,0.92861 2.65287,1.16075 -0.48234,0.92861 -1.68819,0.69645 3.13522,0.4643 v 0.4643 l -1.20585,0.46431 h -0.24118 l -0.24117,-0.46431 -0.96468,2.08936 1.92936,0.46431 c 1.10648,-1.41776 2.70544,-1.35833 4.34105,-1.85722 v -0.23214 l -2.41169,-0.23217 -0.96468,0.46431 v -0.23214 c 1.06982,-0.43111 6.92229,-2.52117 4.34106,-3.48227 l -2.41171,0.23214 v -0.23214 h 0.48234 v -0.23216 l -2.89404,-0.46429 c 1.67301,-0.55787 3.06794,-0.72803 4.09989,-2.32152 l -2.4117,0.23215 0.24118,-0.46429 -1.20585,0.23214 v -0.23214 l 1.68818,-0.46431 v -0.23215 l -2.65286,-0.46431 c 1.72918,-1.27357 4.57546,-2.37072 6.75274,-2.55366 l -0.96467,-1.16075 h -2.17053 v -0.46431 l 0.96468,-0.46429 -1.68818,-0.46431 3.8587,-1.62505 v -0.46431 l -1.92935,-0.4643 v -0.23215 l 0.48234,-0.46431 -0.48234,0.23217 0.24118,-0.69646 -0.48235,0.23215 v -0.23215 l 0.24117,-0.69645 -1.68819,-0.69646 3.37638,-0.69645 -0.72351,-0.46431 1.92935,-7.42882 h 0.48235 l 0.96467,1.8572 -0.24117,2.32151 0.72351,-0.4643 h 0.24117 l 0.72351,3.94657 -0.96468,0.69645 1.92936,-0.69645 0.96467,1.16075 -2.17052,0.23215 v 1.16076 l 1.20585,-0.23215 0.24117,0.9286 -0.72351,0.69645 -0.72351,-0.4643 v 0.92861 l 3.61755,-0.46431 0.96468,0.69646 v 0.46431 h -3.37638 l -0.24118,0.69645 -0.96467,-0.69645 -0.24117,1.3929 h 6.02925 l 0.48233,-1.3929 c -0.91645,-0.63169 -2.74909,-1.83609 -2.17052,-3.01798 v -0.23215 l -1.20585,-2.3215 1.92936,1.62505 h 0.24116 l -2.17052,-4.41087 5.30573,5.80378 -3.13521,-6.03593 1.92937,3.25011 h 0.24116 l -0.24116,-2.78581 1.44701,2.08936 c -0.89522,0.15554 0.40613,1.63759 0.72351,2.08936 h 0.24117 l -1.20585,-4.17872 1.44701,1.85721 h 0.24118 l -2.17053,-4.87517 h 0.24117 l 1.68818,1.85721 -2.89403,-3.48226 0.72351,0.23214 v -1.3929 l 3.13521,3.48226 -2.89404,-5.10732 4.09988,2.32151 c -1.18775,-1.62296 -2.93431,-2.68529 -4.2687,-4.17896 -1.89969,-2.12626 -3.04935,-4.75259 -4.83786,-6.95523 -1.30015,-1.60114 -3.22034,-2.64119 -4.58873,-4.18801 -2.49008,-2.8146 -4.04635,-6.4278 -6.71562,-9.19529 -3.38409,-3.50804 -7.12607,-5.991825 -11.42323,-8.419431 -1.96095,-1.107595 -2.71051,-4.65277 -4.83304,-5.202736 -1.03342,-0.267671 -2.11144,0.880549 -2.81204,1.459998 -1.84471,1.525232 -3.2336,4.814351 -6.2733,4.742849 -1.1376,-0.02694 -2.01233,-2.118849 -2.58462,-2.885872 -1.88716,-2.528358 -6.21276,-3.98232 -6.40836,-7.428834 h -0.96468 c -0.82407,-5.862741 -6.84728,-10.496012 -11.0938,-14.200677 -1.34548,-1.173757 -2.28918,-2.93439 -3.85968,-3.822832 -1.4434,-0.816475 -2.86799,-0.452694 -4.34009,-0.949497 -1.88353,-0.635629 -4.14184,-2.153434 -6.26076,-1.882513 -1.41976,0.181311 -3.83966,3.91128 -4.80312,5.045803 -0.58701,0.691345 -1.87703,1.633645 -2.86991,1.156111 -1.25482,-0.603592 -2.20044,-2.840599 -3.09494,-3.879011 -1.27555,-1.480891 -3.06069,-2.505606 -4.36203,-3.986033 -1.04885,-1.193256 -1.52782,-2.754239 -2.57907,-3.922424 -0.89933,-0.998946 -2.14907,-1.242936 -3.28232,-1.878797 -2.11601,-1.187221 -4.081524,-2.968052 -6.270369,-3.949122 l 1.929348,2.553661 -0.964674,-0.232151 1.929348,2.785813 c 1.088147,0.156703 2.164957,0.773527 1.447007,1.857207 v 0.232152 l 2.65285,1.857208 v -0.232151 l -1.92935,-2.089359 3.8587,3.017963 h 0.24117 l -0.7235,-2.32151 c 1.68095,1.3156 1.17039,3.12986 2.03305,4.875172 0.90197,1.825171 3.55894,4.03432 5.4432,4.875171 l -0.48234,-0.928604 c 2.02076,1.598127 2.63212,5.012605 2.65287,7.428832 l -1.20585,-0.696453 0.48234,0.928604 -0.72351,-0.232151 0.48234,1.625058 -3.36987,-5.803775 -3.38288,-5.339475 h -0.24117 c 0.0743,3.039322 2.86027,6.2704 4.09989,9.053891 l -0.96469,-0.464303 3.85872,5.571625 -1.68819,-0.696453 2.65287,2.553661 v 0.232151 l -2.41169,-0.928605 0.96467,1.160756 -5.5469,-5.339473 c 0.9859,2.545536 2.72497,4.515105 5.30574,5.803775 v 0.232151 l -1.6882,-0.928604 2.17053,3.250114 -2.4117,-1.857208 0.72352,1.392906 -2.41169,-1.392906 1.20584,1.625057 -1.20584,-0.928603 1.68817,2.32151 -0.7235,-0.464303 0.24117,0.696454 -2.17053,-1.160756 1.20585,1.392906 -2.17053,-1.160755 2.89404,3.017964 -2.89404,-1.857209 2.65287,3.017964 -3.37638,-1.857208 3.61755,3.482262 -3.61755,-1.857206 3.37638,3.250112 -2.89403,-1.625053 1.92934,2.553664 -2.17052,-1.625063 3.37638,4.178718 -2.17053,-1.392906 0.48234,2.089359 -0.72351,-0.464296 0.72351,1.625056 -2.17052,-1.16076 0.24116,0.464303 h -0.24116 l -1.20585,-0.232147 0.72351,1.392914 -1.20585,-0.696462 1.68819,1.857212 -1.68819,-1.16075 2.17052,3.94658 -1.92935,-1.85721 1.44702,3.25012 c -3.25965,-3.69099 -3.85365,-8.660422 -8.199741,-11.607574 l 2.652851,3.482264 -0.96467,-0.696452 2.41168,3.250102 -1.44701,-0.928597 2.65285,4.410887 h -0.24118 l -3.37634,-4.410887 3.13518,5.571657 c -2.2829,-1.27011 -3.451117,-5.137763 -4.975288,-7.19671 -1.758131,-2.374678 -4.092156,-4.293634 -6.045872,-6.500231 -1.212122,-1.368995 -1.934427,-3.030964 -3.148473,-4.407387 -1.664549,-1.88762 -4.255681,-4.62561 -4.400383,-7.200165 h 0.241166 l 0.964685,1.857208 h 0.241166 l -0.723509,-1.857208 h 0.241167 l 2.170536,3.017964 v -0.696454 h 0.241166 c 1.265901,1.725115 3.334413,3.04884 5.305729,3.946569 l -6.157541,-7.660985 -4.453925,-9.750342 c 4.703778,3.216452 5.799893,9.957885 10.611466,13.464758 l -2.411693,-4.410868 c 4.112419,3.459515 5.914201,9.007923 8.540526,13.46383 1.153497,1.9575 3.291697,2.927427 4.241417,5.108248 l 0.96467,-0.232147 1.44703,2.785812 h 0.24116 c -0.22574,-1.03934 -1.21333,-4.69874 -2.65286,-4.178718 l -3.13519,-4.410871 h -0.24117 l 0.72351,2.089363 h -0.24117 c -0.959857,-2.207295 -1.876284,-3.798458 -1.929344,-6.26808 h 0.24117 l 0.964674,2.089358 h 0.24116 l -1.447004,-3.946567 0.723507,0.23215 -6.972436,-8.821738 -1.331493,-5.571625 -2.066341,-3.946567 3.135202,1.857209 -0.241167,-0.696453 4.582213,6.500228 c -1.143862,-2.015767 -1.214039,-4.224452 -2.260477,-6.268077 -1.541313,-3.009142 -6.575968,-5.467389 -2.804078,-8.821739 0.318827,2.038982 1.867861,3.357368 3.617544,4.410869 -1.849293,-3.487837 -5.913959,-6.162913 -3.617544,-10.214644 h 0.241166 l 2.652869,3.482265 -0.241166,-0.696453 c 2.682523,2.314314 5.159558,7.229415 6.414595,10.446795 0.35283,0.904228 0.0243,1.817046 0.31496,2.687381 0.93911,2.810653 2.76042,4.872618 5.32887,6.366509 l -4.82337,-8.589588 h 0.24116 c 0.20017,1.063485 0.57687,1.772706 1.68817,2.08936 -0.40347,-3.874136 -3.45689,-6.512998 -5.226588,-9.750343 -1.284694,-2.349832 -1.289034,-4.789973 -3.937797,-6.268078 l 2.652853,5.107322 c -1.781271,-1.345779 -2.811547,-4.140645 -3.915382,-6.035693 -0.563366,-0.967607 -1.485365,-2.172238 -2.827714,-1.71374 -1.935622,0.660934 -3.718111,4.321491 -4.867768,5.892225 -1.56133,2.132772 -2.886078,4.498158 -4.625872,6.500229 -1.413985,1.627147 -3.173795,2.99939 -4.270876,4.875172 -1.283265,2.194291 -0.902456,5.079929 -2.402049,7.172538 -1.35151,1.886226 -3.409895,2.451515 -4.646855,4.666699 -0.299531,0.536502 -0.66201,1.254312 -1.394205,1.260349 -2.308228,0.01903 -5.179594,-3.367584 -7.465882,-2.559001 -5.752139,2.033874 -5.326721,8.57914 -8.396085,12.652926 -0.748347,0.993143 -1.708201,0.785599 -2.653106,1.374335 -1.594135,0.993603 -2.200433,3.460446 -2.215145,5.147482 m 78.862411,-30.411782 0.96468,2.08936 h 0.24117 c 0.99483,-0.784904 3.18657,2.130217 3.85944,2.786044 1.48802,1.450247 2.16763,3.032589 3.36093,4.642788 1.67879,2.26533 4.42956,4.790901 4.83811,7.660984 -0.6379,1.135683 2.6056,3.925673 3.61755,4.643021 l -3.98799,-7.428833 -2.021,-5.559089 -4.12013,-5.35201 c 1.67563,0.46616 2.61017,1.421462 3.13519,3.017965 h 0.24118 l -0.48234,-1.392906 4.87404,6.032443 4.77274,4.646503 h 0.24117 l -0.24117,-1.160755 c 2.13338,1.760633 1.53095,5.839527 4.58222,6.732379 0.41698,1.427961 0.53515,2.987552 1.52974,4.178488 2.26844,2.715935 5.4907,3.35203 6.9112,6.964759 l -1.92936,-1.392906 1.92936,2.785806 -2.65287,-1.857196 0.96469,1.392904 -1.44702,-0.928608 0.24117,1.16076 c -2.93263,-1.316529 -6.11366,-4.984281 -7.2351,-7.893134 h -0.24116 c 0.0487,3.99926 4.50481,5.761753 6.02923,9.053894 l -1.44701,-0.46431 3.1352,3.71444 -1.20584,-1.16075 c -1.51744,0.0845 -2.56629,-1.27964 -3.47501,-2.32154 -2.31186,-2.650462 -4.32852,-6.092568 -5.68944,-9.286039 h -0.24117 l 6.51158,12.071869 c -4.20262,-2.8051 -6.16816,-8.454025 -10.61146,-10.678962 l 3.07539,3.94657 2.71268,4.410872 v -0.69646 h 0.24116 l 2.17053,2.08937 -0.48233,-0.23214 v 0.23214 l 3.61754,3.48229 -2.89404,-1.62507 1.92936,2.55367 -4.09988,-3.01797 3.85871,3.48228 v 0.23214 l -3.37638,-2.08936 0.48234,0.92861 -2.41169,-1.85721 1.44702,2.55366 -3.61755,-2.08936 5.5469,5.33948 -4.09988,-3.01796 2.17053,2.3215 v 0.23216 l -5.06456,-4.87518 4.58222,6.96454 h -0.24117 l -5.30574,-6.26808 5.06457,7.89313 c -2.93504,-1.99023 -4.86247,-5.02676 -7.08532,-7.66005 -2.91913,-3.45838 -6.33481,-6.76283 -8.34954,-10.912065 h -0.24116 l 6.99391,11.375435 h 0.24117 l -0.72351,-1.85721 c 1.73715,0.956 4.18405,4.9223 4.82339,6.73238 l -3.1352,-2.55366 4.82339,6.96453 -6.2704,-6.50023 5.78807,7.89314 -5.54691,-5.80378 0.24117,0.69646 -0.48233,-0.23216 v 0.23216 l 1.44701,2.08936 -2.65286,-1.85722 2.17052,3.01796 -3.85871,-3.71441 5.5469,7.89313 h -0.24117 l -3.61754,-4.41086 0.24117,1.16076 -1.20585,-0.92862 1.44701,2.55367 -2.89404,-2.32151 3.61756,5.33947 -4.58222,-5.10732 0.7235,1.85722 -4.09988,-4.87518 c 1.27192,1.36388 2.60656,3.03003 2.89403,4.87518 l -0.96468,-1.62508 -2.17052,-0.92859 0.48233,1.62505 -0.72351,-0.9286 h -0.24116 l 1.44701,3.01796 -2.41169,-2.08936 1.20584,2.08936 -2.65285,-3.01796 0.96467,2.32151 c -1.49043,-0.39907 -2.61814,-1.655 -3.5669,-2.7893 -2.50576,-2.99567 -7.3928,-9.42903 -3.66819,-12.99698 l 6.27042,12.30402 -4.09989,-9.75036 2.0263,2.98803 2.79709,3.51221 -0.7235,-0.23215 v 1.39291 h 0.24116 l 0.96468,-0.92861 -1.68819,-3.25011 c 2.7708,1.24386 1.68529,3.54355 3.37638,5.10732 l -0.24118,-2.55366 h 0.24118 l 1.92935,2.32151 -3.07467,-5.29096 -2.95239,-2.83433 -0.96685,-3.25013 h -0.24118 l 0.24118,0.9286 h -0.24118 c -1.44581,-3.1243 -3.46151,-6.494665 -3.61754,-9.982502 1.00423,0.346598 1.38625,0.887283 1.68819,1.85721 h 0.24117 v -1.392906 h 0.48234 l 1.92935,2.785812 -0.72351,-1.392906 c 2.33718,1.170042 6.72213,5.445792 7.23509,7.893142 l 0.72351,-0.46431 2.65287,2.55369 -6.27042,-9.518225 h -0.24117 v 0.928609 h -0.24116 l -3.13521,-3.94657 c -1.97734,-4.90744 -2.80408,-8.405028 -0.72351,-13.464759 h 0.24118 l 0.7235,3.250114 h 0.24118 v -0.928604 h 0.24116 l 4.7537,6.035926 4.89308,4.875175 -4.4204,-7.660987 -4.17488,-4.875172 0.39551,-7.196681 1.6882,2.553661 h 0.24117 l -0.72352,-2.553661 3.61755,3.250114 c -1.78296,-1.864868 -6.74333,-6.540158 -5.5469,-9.286041 m -23.6346,0.232151 0.24116,1.160756 h -0.24116 V 66.679 m -10.852594,1.857209 1.688184,2.089359 -1.688184,-2.089359 m 12.058434,0.232151 c 0.37912,1.240383 1.01797,2.113735 2.17052,2.785813 l -2.17052,-2.785813 m 27.73449,0.464302 c 2.06707,2.306651 4.97122,4.916727 5.30573,8.125285 h -0.24116 c -1.08938,-2.641878 -5.34095,-5.103375 -5.06457,-8.125285 m -34.487202,1.625057 0.482337,0.464301 -0.482337,-0.464301 m 30.628492,0.232151 -0.24117,0.23215 0.24117,-0.23215 m -37.381232,0.696453 0.241166,1.160756 -0.241166,-1.160756 m 46.063342,1.160756 0.24117,1.160754 h 0.24116 l -0.48233,-1.160754 m -33.76373,1.625056 0.7235,1.392906 h 0.24116 l -0.96466,-1.392906 m 25.56395,1.392906 1.92937,3.017964 -1.92937,-3.017964 m -29.663811,0.464302 c 0.17967,1.368531 0.767887,2.213096 1.929341,3.017964 l -1.929341,-3.017964 m -7.476242,0.928604 -0.241167,0.232152 0.241167,-0.232152 m -30.628548,1.392907 4.582228,6.732379 -2.894034,-5.803776 c 2.098171,0.984785 2.654308,3.320225 3.135202,5.339474 h 0.241166 v -1.160755 l 3.85872,4.643021 -4.341054,-6.73238 h 0.241168 c 1.040649,1.472534 2.61741,2.589412 3.588366,3.979765 3.775508,5.406797 7.01176,10.854219 11.846486,15.520928 -0.200413,-1.02054 -1.226825,-3.643618 0.241176,-3.946574 l -0.241176,0.696453 c 1.486568,0.491926 1.94214,1.662431 2.411702,3.017961 h -0.241175 l -1.205843,-1.857204 h -0.241175 l 3.289557,3.515714 7.080743,9.02047 h -0.482342 l 4.58223,5.33947 -3.135213,-2.55365 0.482342,1.62505 -3.135202,-3.01796 0.482333,1.39291 c -1.628371,-0.47452 -1.718327,-2.65396 -2.499234,-3.94658 -1.244927,-2.0601 -3.441012,-4.43523 -5.459363,-5.80378 2.234432,2.48588 4.836175,6.10442 5.788071,9.28605 l -0.723509,-0.4643 0.723509,2.08935 -3.617544,-3.71441 6.270413,8.58959 H 90.74686 l -5.064571,-6.03592 3.617554,5.57163 -3.135212,-3.01798 h -0.241166 l 1.92936,3.25012 -2.411703,-2.3215 3.376378,5.10731 c -2.163298,-1.68425 -4.892852,-4.74261 -6.029246,-7.19668 l 1.205851,0.46429 -2.894036,-5.10731 v 2.08936 l -0.723508,-0.23215 -0.241167,0.23215 0.964675,1.85721 -1.205851,-0.92861 0.241176,0.92861 -0.723509,-0.46431 1.205842,1.85722 -1.447018,-0.92862 1.447018,2.55367 -2.894035,-3.01796 1.447017,3.01796 -1.688184,-2.08936 h -0.241166 l 1.205841,2.32151 -3.135201,-3.25011 2.894035,4.64301 -1.205851,-1.16074 h -0.241167 l 0.241167,1.39291 -2.411694,-2.55367 0.964676,3.01796 c -3.323556,-2.37676 -4.730541,-7.0163 -6.452733,-10.4468 -1.238647,-2.46706 -3.242039,-4.22816 -4.602482,-6.53971 -0.485469,-0.82506 -0.434342,-1.86069 -0.75028,-2.74636 -1.555296,-4.363274 -2.156052,-7.063889 -1.458831,-11.607551 h 0.482342 c 0.0019,3.3251 1.387205,5.015162 2.65286,7.893139 h 0.241176 L 61.056946,81.304515 60.359479,78.750854 m 66.080431,1.625057 0.24116,0.696453 -0.24116,-0.696453 m 14.22899,0.464302 1.44702,2.32151 -1.44702,-2.32151 m -1.92934,2.55366 0.24116,0.232152 -0.24116,-0.232152 m 4.09987,0.696454 c 0.553,1.848851 1.56448,4.578482 3.13521,5.803776 l 0.24117,-0.696454 -3.37638,-5.107322 m -77.897723,1.392906 0.241168,0.232151 -0.241168,-0.232151 m 47.269193,1.160755 -0.24116,0.232151 0.24116,-0.232151 m -1.20584,0.232151 -0.24117,0.232151 0.24117,-0.232151 m -47.269203,0.464302 0.964675,3.250115 h 0.241175 l -1.20585,-3.250115 m 36.898923,0.928605 c 0.16858,1.098074 0.42566,1.96539 1.44701,2.553661 l -1.44701,-2.553661 m 42.44583,0 0.24117,0.232151 -0.24117,-0.232151 m -73.797849,0.232151 0.482333,0.464302 -0.482333,-0.464302 m 68.733279,0 1.44702,1.857208 -1.44702,-1.857208 m 8.28008,1.54775 0.0806,0.154613 -0.0806,-0.154613 m 0.40203,-0.154844 0.96468,0.696453 -0.96468,-0.696453 m -76.691881,0.696453 12.781985,19.268564 h 0.241175 c -1.865454,-4.86798 -5.913485,-9.30928 -8.758317,-13.696943 -1.173056,-1.809383 -2.252526,-4.512548 -4.264843,-5.571621 m 24.599302,0 0.241167,0.232151 -0.241167,-0.232151 m 34.487189,0.464302 1.92936,3.017961 -1.92936,-3.017961 m -61.498193,0.464301 0.482342,1.857206 0.964676,0.232157 -1.447018,-2.089363 m 80.309423,0 v 0.696457 h 0.24118 l -0.24118,-0.696457 m -13.50549,0.4643 0.24117,0.232157 -0.24117,-0.232157 m 6.51158,0.92861 0.24117,0.232149 -0.24117,-0.232149 m -41.963474,0.232149 4.341024,6.035928 0.48234,-1.160757 -4.823364,-4.875171 m 34.004884,0 1.20584,2.553664 -1.20584,-2.553664 m -66.321598,0.232147 2.956255,4.663687 0.530333,3.458128 2.783825,3.95007 -1.447018,-1.85722 h -0.241175 c 0.514418,2.77631 2.941069,5.94703 5.546904,7.1967 -0.56096,-3.23967 -2.97989,-5.46345 -4.823395,-8.1253 -0.407089,-0.58782 -1.624516,-2.36425 -0.482334,-2.08937 -0.458953,-2.549258 -2.657207,-5.727637 -4.823395,-7.196695 m 103.944048,3.017969 h 0.24117 l -0.7235,-1.85721 4.09988,3.626434 5.06456,2.641642 -1.6882,-2.089358 c 2.38421,1.073461 3.08578,4.029688 4.84582,5.794738 2.0362,2.04155 4.33358,3.95471 6.05771,6.27715 1.195,1.60973 1.77911,3.36526 3.18681,4.86611 2.41845,2.57804 5.44586,4.48957 7.13259,7.67004 l -6.2704,-6.03592 3.85871,7.89313 h -0.24117 l -8.92328,-11.60755 0.72351,1.62506 -0.72351,-0.23215 -0.24116,0.69644 -11.09381,-10.67894 3.13521,5.57162 -0.72351,-0.23214 1.92936,3.48226 -2.17053,-1.62506 1.20585,2.32152 -2.4117,-1.85722 1.68819,2.55367 -0.72351,-0.46431 -0.24118,0.69646 3.61755,5.80377 c -1.82469,-0.56087 -3.59052,-2.14647 -4.09987,-3.94656 l -0.72352,0.23215 0.72352,1.62505 -1.44702,-1.39291 h -0.24118 l 1.92936,3.94658 -3.37638,-4.17872 0.24118,1.85721 -1.44702,-2.32152 h -0.24117 l 0.48233,1.85721 -1.44701,-1.3929 h -0.24116 v 0.9286 h -0.24118 l -1.68819,-2.55366 0.72352,1.8572 -1.20586,-1.62505 h -0.24117 l 1.44703,4.41087 -1.44703,-1.8572 h -0.24116 v 0.69645 h -0.24118 c -1.09298,-2.86405 -3.15498,-6.9657 -2.17053,-9.9825 h 0.48234 l 0.24118,0.92861 h 0.24117 v -0.69646 l 0.96468,1.16076 1.44701,0.9286 0.96468,-0.69645 3.13521,4.64301 -0.24118,-0.69644 c 1.07272,-2.9265 -2.35742,-4.84639 -3.96554,-6.60215 -1.85773,-2.02853 -1.62645,-4.33311 -0.13433,-6.39833 l 1.44701,0.46429 -1.20585,-0.9286 -0.24116,-3.946576 h -0.72351 v 2.321514 l -0.96469,-1.857209 h -0.24116 c 0.30049,2.289001 -0.0398,4.714071 -2.65287,5.571641 l 1.80009,-5.116391 1.57629,-4.633969 c 1.35585,0.420189 2.2038,1.254081 2.65286,2.553664 m -66.32164,-1.85721 -0.24116,0.232147 0.24116,-0.232147 m 23.15228,0 0.48234,0.928601 h 0.24116 l -0.7235,-0.928601 m -5.06456,0.464304 0.24117,0.232148 -0.24117,-0.232148 m 46.54573,0 c 0.84048,3.274949 2.73704,6.713342 6.02925,8.357462 l -4.01789,-5.339501 -2.01136,-3.017961 m -59.3277,0.696454 0.24116,0.696452 -0.24116,-0.696452 m -43.651667,0.464295 1.447018,1.392907 -1.447018,-1.392907 m 80.550597,0 1.68819,1.857212 -1.68819,-1.857212 M 28.283922,96.626483 c 2.269407,1.738812 6.396056,3.817717 7.717432,6.268087 h 0.241166 v -0.9286 c 0.942489,0.78026 1.177148,1.61299 1.205851,2.78582 h -0.241176 l -0.482333,-1.3929 h -0.241176 c 0.415538,2.31454 2.380593,3.34669 3.757671,5.10733 1.603296,2.04966 3.70195,5.4249 4.442103,7.89312 l -1.447018,-1.16074 1.447018,2.32151 -1.92936,-1.85722 h -0.241167 l 0.964675,2.78582 -2.170526,-3.25011 h -0.241167 l 3.858711,7.66098 c -2.379617,-1.4001 -3.066712,-4.94087 -4.197072,-7.19669 -0.759203,-1.51524 -2.153162,-2.71175 -3.520359,-3.71441 l 2.894036,4.64303 -0.482333,0.23214 -0.72351,-0.23214 3.376369,6.26807 -1.929351,-1.85721 v 0.9286 l -0.723508,-0.4643 1.447017,2.55366 -2.411702,-2.55366 h -0.241167 l 0.723509,1.85721 -0.964675,-0.69645 2.652859,3.71442 -3.135201,-2.78582 0.723508,1.39291 -1.205851,-0.92861 -0.241166,0.69646 -0.964675,-0.69646 0.964675,1.85722 h -0.241167 l -0.964684,-1.16076 0.482342,1.16076 -0.964676,-0.69646 1.205842,2.08936 -2.65286,-3.01796 h -0.241175 l 2.170527,4.41086 -2.411694,-2.3215 1.205852,2.3215 c -0.86966,0 0.09116,1.07672 0.241166,1.62506 -3.085279,-2.29365 -3.723662,-6.75025 -5.078791,-9.98249 -0.621256,-1.48182 -1.791412,-2.72104 -1.880402,-4.41087 -0.09117,-1.7265 0.813948,-3.23572 1.171122,-4.87517 h 0.241167 l 1.688194,7.42883 h 0.241166 l -0.241166,-2.78582 h 0.241166 l 1.447018,2.32153 c 0.412401,-1.20302 1.187274,-0.68927 1.92936,0 l 0.241166,-0.92862 0.723509,0.46431 0.241167,-0.69646 c -3.610545,-0.53627 -3.530478,-3.71998 -4.354316,-6.26808 -0.562893,-1.74136 -1.976622,-3.08226 -2.486702,-4.87517 -0.499697,-1.75647 0.622943,-3.551 0.476555,-5.33951 -0.106601,-1.300272 -1.129877,-2.444542 -1.111793,-3.714407 m 69.456843,7.196697 -6.270396,-6.03594 3.858711,5.57165 c -1.858691,-1.31678 -4.569441,-4.137427 -5.305729,-6.268102 l 1.447018,0.696452 -0.482342,-0.928609 c 2.520226,0.680905 5.753574,4.692699 6.752738,6.964549 m -46.545726,-6.03594 1.688184,4.87519 c -1.28785,-1.06257 -2.389753,-3.26221 -1.688184,-4.87519 m 15.917196,0 0.723508,1.625053 -0.723508,-1.625053 m 27.25217,0 1.929349,3.25011 c -0.878573,-0.66349 -2.25421,-2.107461 -1.929349,-3.25011 m 49.922045,0 0.24118,0.232149 -0.24118,-0.232149 m 11.41529,0.386996 0.0806,0.154611 -0.0806,-0.154611 m -18.40921,0.541606 0.96468,1.160756 -0.96468,-1.160756 m -13.26433,0.696451 2.17053,2.321517 c -0.36922,-1.22646 -0.90777,-1.892729 -2.17053,-2.321517 m 21.4641,0.464305 0.48234,0.696462 -0.48234,-0.696462 m -7.47626,0.232152 1.68819,1.85722 v -0.23216 l -1.68819,-1.62506 m -71.144981,0.23214 1.447018,2.32154 -1.447018,-2.32154 m 7.235088,0 1.92936,4.17875 h 0.241167 c -0.243336,-1.58653 -0.867728,-3.1394 -2.170527,-4.17875 m 28.699143,0 -0.24116,0.23217 0.24116,-0.23217 m 3.61754,0.23217 0.96469,0.46429 v 0.23216 l -1.20585,-0.46431 0.24116,-0.23214 m -48.475045,0.23214 4.054786,6.68969 2.456794,3.29284 h 0.241167 c 0.816118,-0.65072 1.685295,1.02936 2.087325,1.62506 1.510685,2.2377 2.270855,5.71927 4.424255,7.42882 l -2.894035,-5.33946 c 2.849426,1.71861 5.329846,7.31856 6.752755,10.21464 l -4.099887,-4.64301 1.447018,3.71441 -2.411694,-2.32152 1.205843,2.55366 -1.688185,-2.55366 h -0.241166 l 0.241166,1.39291 h -0.241166 l -0.964684,-1.85721 h -0.241168 l 0.482343,1.85721 -1.688193,-2.7858 h -0.241167 l 0.723509,3.01795 -3.376378,-2.78581 0.241176,1.85721 c -2.581243,-1.15936 -4.222166,-5.96629 -4.341054,-8.58959 l 0.964676,0.23215 -0.241166,-0.9286 c 1.534076,0.72152 2.492963,2.47124 3.135202,3.94656 h 0.241166 l -1.688184,-3.94656 3.617544,4.64302 c -0.287954,-2.70619 -2.354295,-3.73323 -4.02054,-5.58161 -0.759203,-0.84224 -0.931879,-1.78733 -1.371773,-2.77583 -0.974811,-2.19127 -3.349123,-5.90014 -2.566285,-8.35747 m 33.522584,0 c 1.488255,1.50133 2.990737,3.48902 3.376369,5.57166 -1.286393,-0.69761 -3.515528,-4.14647 -3.376369,-5.57166 m 55.468951,0.69646 0.24116,0.23215 -0.24116,-0.23215 m -115.520196,0.23215 1.688194,2.78583 h 0.241166 l -1.92936,-2.78583 m 139.154816,0.69645 0.24117,0.23217 -0.24117,-0.23217 m -1.44701,0.23217 3.15666,4.36793 3.35492,2.82876 h 0.24116 c -0.48861,-3.19951 -3.98509,-5.59578 -6.75274,-7.19669 m -29.18153,0.23214 0.48234,0.69646 -0.48234,-0.69646 m 8.44093,0.69646 1.20585,1.16076 -1.20585,-1.16076 m -57.398303,1.16076 0.964675,1.62507 -0.964675,-1.62507 m 43.651643,0.23216 0.24116,0.23214 -0.24116,-0.23214 m 7.47625,0.23214 0.24118,0.23216 -0.24118,-0.23216 m -110.696796,0.23216 1.447018,3.01797 h 0.241176 l -1.688194,-3.01797 m 41.722348,0 -0.241167,0.23215 0.241167,-0.23215 m 68.009778,0.4643 0.24116,0.23216 -0.24116,-0.23216 m -107.320424,0.46431 c 0.316175,1.53708 0.876652,2.0492 2.411694,2.55366 l -2.411694,-2.55366 m 110.214454,0.23215 1.20585,1.16076 -1.20585,-1.16076 m -25.3228,0.23215 v 0.4643 h -0.48234 v -0.4643 h 0.48234 m 19.29356,0 0.24117,0.23215 -0.24117,-0.23215 m -0.96468,2.08936 0.48235,0.69645 -0.48235,-0.69645 m -106.596911,0.69645 v 2.78582 h 0.241167 v -0.92861 h 0.482342 l -0.241166,1.85721 h -0.482343 c -0.502842,-1.14707 -0.827694,-2.66254 0,-3.71442 m 8.440939,0.23215 1.205843,1.62506 -1.205843,-1.62506 m 139.154812,0.23215 0.24117,0.23216 -0.24117,-0.23216 m -44.85755,0.23216 1.44702,1.62505 -1.44702,-1.62505 m -47.510361,0.4643 1.447027,2.32151 h 0.241167 l -1.688194,-2.32151 m -4.823386,0.23215 0.241166,0.23215 -0.241166,-0.23215 m 56.433627,0 0.24118,0.69645 h 0.24116 l -0.48234,-0.69645 m -5.06455,0.23215 c 0.84337,1.45814 1.81985,3.13381 3.37636,3.94657 l -3.37636,-3.94657 m -47.751533,0.4643 0.241167,0.23215 -0.241167,-0.23215 m -29.905039,0.23215 1.205851,2.78581 c -0.949726,-0.52861 -1.523949,-1.74995 -1.205851,-2.78581 m 82.721122,0 0.24118,0.23215 -0.24118,-0.23215 m 40.5165,0 0.24117,0.23215 -0.24117,-0.23215 m 9.40561,0.23215 c 1.0228,1.48833 2.68976,4.02666 4.58223,4.41088 v -0.23217 l -4.58223,-4.17871 m -121.308257,0.23216 v 0.69645 h 0.241167 l -0.241167,-0.69645 m 110.696797,0 0.24117,0.23214 -0.24117,-0.23214 m -107.320419,0.4643 0.964676,3.25011 h -0.241168 l -0.723508,-3.25011 m 49.922059,0.23215 0.96467,1.16075 v -0.9286 h 0.48235 c 0.45942,1.29586 1.30955,3.29956 2.89403,3.48226 l 1.20584,1.62506 -1.44702,-0.46429 1.68819,2.7858 -2.17052,-1.62506 3.37637,4.17872 -2.89404,-2.55366 -0.24116,0.69645 -0.96468,-1.39289 h -0.24116 l 0.96467,2.55365 c -1.236,-0.67533 -1.49139,-2.03225 -2.03886,-3.21065 -0.93765,-2.01809 -3.26953,-4.12021 -1.57868,-6.30754 m 71.14503,0 0.48233,0.69645 -0.48233,-0.69645 m -15.19369,0.23215 1.92937,2.08936 -1.92937,-2.08936 m -121.067085,0.4643 1.205842,2.32151 c -0.836618,-0.49263 -1.478127,-1.36296 -1.205842,-2.32151 m 6.752746,0 0.723509,2.08936 h 0.241167 l -0.964676,-2.08936 m 18.087722,0.23215 0.482342,0.69645 -0.482342,-0.69645 m 13.264335,0 0.482333,0.46431 -0.482333,-0.46431 m -49.439778,0.23215 0.241166,0.92861 h 0.241176 L 42.7541,114.26999 m 42.687022,0 0.241167,0.23216 -0.241167,-0.23216 m 101.050008,0 0.72351,0.69646 -0.72351,-0.69646 m -8.92328,0.23216 0.24118,0.23214 -0.24118,-0.23214 m -100.085325,0.4643 0.241167,0.23215 -0.241167,-0.23215 m 1.205851,0 0.241167,0.69644 h 0.241166 l -0.482333,-0.69644 m 47.751534,0 0.24116,0.23215 -0.24116,-0.23215 m 47.26924,0 0.24116,0.23215 -0.24116,-0.23215 m -37.62247,0.23215 0.24118,0.23215 -0.24118,-0.23215 m -59.327664,0.23215 0.241167,0.69645 h 0.241176 l -0.482343,-0.69645 m 51.931724,0.38699 0.0805,0.15461 -0.0805,-0.15461 m -57.719795,0.0773 0.964676,2.3215 c -0.808881,-0.61706 -1.364536,-1.3228 -0.964676,-2.3215 m 55.227785,0 0.24118,0.23214 -0.24118,-0.23214 m 6.51157,0 0.24119,0.23214 -0.24119,-0.23214 m -47.510344,0.23214 0.482333,0.9286 h 0.241176 l -0.723509,-0.9286 m 102.497024,0 c 1.18704,1.12385 2.31885,2.54089 2.41169,4.17872 -1.03918,-0.82901 -2.54408,-2.83387 -2.41169,-4.17872 m -121.54943,0.46431 1.447017,2.3215 -1.447017,-2.3215 m -2.170527,0.23214 0.241176,0.23215 -0.241176,-0.23215 m 55.951307,0 0.24116,0.23215 -0.24116,-0.23215 m -43.892823,0.9286 0.482342,0.92862 h 0.241167 l -0.723509,-0.92862 m -41.481171,0.23217 v 0.46429 h 0.482333 l -0.482333,-0.46429 m -1.92936,0.46429 0.482342,1.3929 h 0.241166 l -0.723508,-1.3929 m 89.956214,0.4643 0.24117,0.23215 -0.24117,-0.23215 m -0.88437,0.85131 0.0806,0.15461 -0.0806,-0.15461 m -55.308095,0.0773 0.241167,0.23217 -0.241167,-0.23217 m -27.011003,1.39291 0.241176,0.23215 -0.241176,-0.23215 m -1.447018,1.16076 0.241176,0.23215 -0.241176,-0.23215 m 126.372826,0 -0.24117,0.23215 0.24117,-0.23215 m -62.22174,0.23215 v 0.4643 h 0.48234 v -0.4643 h -0.48234 m 58.36303,0.4643 0.72351,-0.23215 -0.72351,0.23215 m -135.537276,0 4.823396,7.19668 c -1.871234,-0.96458 -3.647688,-3.76526 -4.58222,-5.57162 h -0.241176 l 2.894036,5.10733 c -1.73087,-0.81254 -3.848101,-3.91314 -3.617544,-5.80379 l 0.482342,0.69646 h 0.241166 v -1.62506 m 12.540827,0.23215 0.241167,0.23215 -0.241167,-0.23215 m -4.099887,0.69645 0.241167,0.23216 -0.241167,-0.23216 m 17.444526,0.15485 0.08058,0.15461 -0.08058,-0.15461 m 52.49462,0.0773 -0.48234,0.9286 h 0.24117 l 0.24117,-0.9286 m -68.492128,0.4643 0.482342,0.4643 -0.482342,-0.4643 m 15.354549,0.5416 0.160617,0.0776 -0.160617,-0.0776 m 114.635819,-0.0773 -0.24117,0.23214 0.24117,-0.23214 m -113.99286,0.38699 0.08058,0.15461 -0.08058,-0.15461 m 110.6968,0 0.0806,0.15461 -0.0806,-0.15461 m -128.623668,0.0773 0.482342,0.69645 -0.482342,-0.69645 m 127.819838,0.46429 v 1.16077 h 0.24117 l -0.24117,-1.16077 m -58.60419,0.92861 0.24117,0.23216 -0.24117,-0.23216 m 57.63952,0.4643 -0.24118,0.4643 0.24118,-0.4643 m -57.15718,0.23216 0.24116,0.23214 -0.24116,-0.23214 m 97.67367,0.46429 -0.24117,0.23216 0.24117,-0.23216 m -41.96351,0.30946 c 0.18643,0 0.0385,0.11561 -0.0803,0.0776 l 0.0803,-0.0776 m -110.294766,0.30969 -0.08058,0.15461 0.08058,-0.15461 m 1.286155,-0.15485 0.241167,0.23216 -0.241167,-0.23216 m 33.76375,0 0.241167,0.23216 -0.241167,-0.23216 m 75.727201,0.46431 0.24117,0.23215 -0.24117,-0.23215 m -108.043933,0.23215 0.241166,0.23215 -0.241166,-0.23215 m 52.896413,0.15485 0.0806,0.15461 -0.0806,-0.15461 m 56.03188,-0.0776 0.16062,0.0776 -0.16062,-0.0776 m -17.76624,0.15485 -0.24116,0.69645 0.24116,-0.69645 m 18.57007,0 0.72351,0.9286 -0.72351,-0.9286 m -109.97329,0.23215 0.241167,0.23214 -0.241167,-0.23214 m 52.33376,0 -0.48233,0.69645 0.48233,-0.69645 m -53.057268,0.23214 0.723508,0.46431 v -0.23215 l -0.723508,-0.23216 m 91.403228,0.46431 0.24116,0.23215 -0.24116,-0.23215 m -88.991535,0.23215 0.241166,0.23215 -0.241166,-0.23215 m 89.715035,0 0.24117,0.23215 -0.24117,-0.23215 m 20.49942,0 0.24118,0.23215 -0.24118,-0.23215 m 0.80382,0.15485 0.0806,0.15461 -0.0806,-0.15461 m -154.4288041,0.0773 -0.241166,0.23216 0.241166,-0.23216 m 72.1097171,0 0.241166,0.23216 -0.241166,-0.23216 m 1.205842,0 0.241176,0.23216 -0.241176,-0.23216 m -32.799066,0.4643 0.241167,0.23216 -0.241167,-0.23216 m 33.924604,0.0773 0.160625,0.0776 -0.160625,-0.0776 m 15.997493,-0.0773 -0.24117,0.23216 0.24117,-0.23216 m 59.568854,0 1.20585,0.69646 -1.20585,-0.69646 m -108.767442,0.23216 0.241167,0.23214 -0.241167,-0.23214 m 89.715042,0 v 0.4643 l 0.48234,-0.4643 h -0.48234 m 20.74059,0 v 0.4643 h 0.48233 v -0.4643 h -0.48233 m 37.62246,0 0.48233,0.92859 h -0.24116 l -0.24117,-0.92859 m -37.3813,0.69645 0.24117,0.23214 -0.24117,-0.23214 m -111.420301,0.23219 v 0.23216 l 0.964676,0.23215 v -0.23215 l -0.964676,-0.23216 m 91.162061,0 0.24116,0.23216 -0.24116,-0.23216 m 21.22292,0 0.24117,0.23216 -0.24117,-0.23216 m 0.96469,0 0.24116,0.23216 -0.24116,-0.23216 m 33.76374,0 -0.24117,0.23216 0.24117,-0.23216 m -90.4386,0.23216 0.24118,0.23215 -0.24118,-0.23215 m 35.45192,0 v 0.23215 h 0.72351 l -0.72351,-0.23215 m -38.82828,0.23215 -0.24117,0.9286 h 0.24117 v -0.9286 m 5.06455,0 -0.24116,0.23215 0.24116,-0.23215 m 54.50433,0 0.48234,0.4643 -0.48234,-0.4643 m -56.43369,0.23215 0.48235,0.69645 -0.48235,-0.69645 m 90.67977,0.92861 -1.20585,-0.92861 1.20585,0.92861 m -95.74431,-0.69646 -0.24117,0.23216 0.24117,-0.23216 m 21.46407,0 0.24117,0.23216 -0.24117,-0.23216 m 20.25825,0 v 0.23216 l 0.72351,0.23214 -0.72351,-0.4643 m -57.960966,0.30946 0.160617,0.0776 -0.160617,-0.0776 m 71.466456,-0.0773 -0.24116,0.23215 0.24116,-0.23215 m -14.47018,0.23215 -0.72351,0.92861 0.24118,0.23214 0.48233,-1.16075 m 17.60539,0 -0.96468,1.16075 0.96468,-1.16075 m 1.92935,0 0.24118,0.23215 -0.24118,-0.23215 m 0.48235,0 0.24116,0.23215 -0.24116,-0.23215 m -78.862413,0.23215 v 0.69646 h 0.241167 l -0.241167,-0.69646 m 80.389733,0.15485 0.0806,0.15462 -0.0806,-0.15462 m 0.40204,-0.15485 0.24116,0.9286 h 0.24117 l -0.48233,-0.9286 m -60.53357,0.23215 -0.48233,1.39291 0.96467,-1.39291 h -0.48234 m 59.32772,0.23215 0.24116,0.23216 -0.24116,-0.23216 m -20.66028,0.38701 0.0805,0.15461 -0.0805,-0.15461 m 0.64319,0.0773 0.24118,0.23216 -0.24118,-0.23216 m -39.55179,1.85722 0.7235,-0.92861 0.72351,0.92861 h 0.24116 l -0.48233,-1.39291 -1.20584,1.39291 m 57.88069,-0.69646 0.96468,-0.69645 -0.96468,0.69645 m -140.843004,-0.4643 0.241166,0.23215 -0.241166,-0.23215 M 21.29,136.09216 21.531176,136.32431 21.29,136.09216 m 103.46171,0 v 0.23215 l -0.96468,0.23215 0.96468,-0.4643 m 36.41662,0.23215 0.24117,0.23215 -0.24117,-0.23215 m -143.737039,0.4643 -0.241166,0.23216 0.241166,-0.23216 m 3.858709,0 0.241176,0.23216 L 21.29,136.78861 m 119.05742,0.0773 0.16063,0.0776 -0.16063,-0.0776 m 1.7685,-0.0773 0.24118,0.23216 -0.24118,-0.23216 m 0.72351,0 0.24118,0.23216 -0.24118,-0.23216 m 18.81123,0 -0.24116,1.16076 h 0.24116 v -0.69646 l 1.92936,0.23216 v -0.23216 l -1.20585,0.23216 -0.72351,-0.69646 m -58.12187,0.23216 -0.24116,0.69645 0.24116,-0.69645 m -84.409316,0.23214 0.241176,0.23216 -0.241176,-0.23216 m 120.584756,0.69646 0.96467,-0.69646 -0.96467,0.69646 m 54.98667,-0.69646 -0.24118,0.23216 0.24118,-0.23216 m -126.613991,0.23216 0.241168,0.23215 -0.241168,-0.23215 m -49.198601,0.23215 -0.723509,0.4643 v 0.23215 l 0.723509,0.23215 v -0.9286 m 146.631072,0 0.24117,0.23215 -0.24117,-0.23215 m 22.66995,0 0.24116,0.23215 -0.24116,-0.23215 m -83.20351,0.23215 -0.72352,0.9286 0.72352,-0.9286 m 18.57005,0.23215 0.24116,0.23215 -0.24116,-0.23215 m -1.68818,0.4643 0.96467,0.9286 -0.96467,-0.9286 m 53.29847,0 0.24117,0.23215 -0.24117,-0.23215 m 15.9172,0 v 0.69645 h 0.24117 l -0.24117,-0.69645 m -140.119497,0.46431 0.241176,0.23214 -0.241176,-0.23214 m 106.355747,0.0773 c 0.18643,0 0.0385,0.11562 -0.0803,0.0776 l 0.0803,-0.0776 m -12.05848,0.15485 -0.24118,0.46431 0.24118,-0.46431 m -80.550598,0.23215 0.241175,0.46431 h -0.482342 l 0.241167,-0.46431 m 23.393459,0 -0.241166,0.23216 0.241166,-0.23216 m 75.003689,0 0.24118,0.23216 -0.24118,-0.23216 m -63.668734,0.23216 0.241167,0.23215 -0.241167,-0.23215 m 1.527304,0.15484 0.0806,0.15461 -0.0806,-0.15461 m 18.57005,0 0.0806,0.15461 -0.0806,-0.15461 m 41.8832,-0.15484 0.24116,0.23215 -0.24116,-0.23215 m -59.08654,0.23215 0.24117,0.23214 -0.24117,-0.23214 m 41.72232,0.23214 0.48235,0.69645 -0.48235,-0.69645 m 16.6407,0.23216 0.24117,0.23215 -0.24117,-0.23215 m 7.71744,0 -0.24118,0.23215 0.24118,-0.23215 m -59.32772,0.23215 0.24116,0.23214 -0.24116,-0.23214 m 69.21567,0 -0.48234,0.9286 0.48234,-0.9286 m -129.106004,0.30946 0.160626,0.0776 -0.160626,-0.0776 m 17.283664,0.0776 0.08058,0.15461 -0.08058,-0.15461 m 100.48737,-0.15485 0.24117,0.23216 -0.24117,-0.23216 m -119.620081,0.23216 0.241176,0.23215 -0.241176,-0.23215 m 95.503111,0 0.24118,0.23215 -0.24118,-0.23215 m 1.6882,0 0.48232,0.69646 -0.48232,-0.69646 m 11.33496,0 0.24118,0.23215 -0.24118,-0.23215 m -32.79906,0.23215 0.24116,0.23214 -0.24116,-0.23214 m -73.315508,0.46431 0.241166,0.23214 -0.241166,-0.23214 m 125.649308,0 -0.24117,0.23214 0.24117,-0.23214 m -164.95996,0.23214 -0.7235087,1.16075 0.7235087,-1.16075 m 21.464096,0 0.241167,0.23215 -0.241167,-0.23215 m 38.104803,0.69645 -0.482342,0.4643 v -0.4643 h 0.482342 m 14.148699,0.0773 0.160616,0.0776 -0.160616,-0.0776 m 112.947632,1.08345 c -0.56555,-0.20732 -4.11267,-0.37539 -2.50262,0.88635 0.96781,0.75844 4.84197,0.13209 5.39665,-0.88635 l -1.92935,-0.92861 -0.96468,0.92861 m -147.756608,-0.54162 0.08058,0.15462 -0.08058,-0.15462 m 87.223038,-0.15483 -0.24117,0.23215 0.24117,-0.23215 m 30.62854,0 -0.24117,0.23215 0.24117,-0.23215 m 10.12912,0 -0.48234,0.9286 0.96468,-0.9286 h -0.48234 m 19.0524,0 0.24116,0.23215 -0.24116,-0.23215 m -129.990365,0.23215 0.241167,0.23214 -0.241167,-0.23214 m -13.425188,0.38699 0.08058,0.15461 -0.08058,-0.15461 m 28.216845,0 0.08058,0.15461 -0.08058,-0.15461 M 188.66165,143.7532 v 0.46431 h -0.48232 l 0.48232,-0.46431 m -182.3241559,1.16072 1.4470174,-0.92861 -1.4470174,0.92861 m 99.1206659,-0.92861 v 0.92861 h 0.24116 l -0.24116,-0.92861 m 16.64069,0 0.24117,0.23216 -0.24117,-0.23216 m 1.20584,0 0.24118,0.23216 -0.24118,-0.23216 m 71.62738,0 -0.24117,0.23216 0.24117,-0.23216 m -174.606746,0.23216 0.241168,0.23214 -0.241168,-0.23214 m 33.522575,0 v 0.4643 h 0.482342 l -0.482342,-0.4643 m 50.163241,0 0.48234,0.4643 -0.48234,-0.4643 m 39.5518,0 0.24117,0.23214 -0.24117,-0.23214 m -122.514106,0.23214 0.241166,0.23216 -0.241166,-0.23216 m 29.422696,0 -0.241175,0.46431 0.241175,-0.46431 m 2.170527,0 v 0.46431 h 0.482334 v -0.46431 h -0.482334 m 50.404403,0 0.48233,0.92861 -0.48233,-0.92861 m 43.89286,0 -0.24117,0.23216 0.24117,-0.23216 m 10.53115,0.0773 0.16061,0.0776 -0.16061,-0.0776 m -104.104904,0.15484 0.241167,0.23215 -0.241167,-0.23215 m 102.899054,0.0773 0.16062,0.0776 -0.16062,-0.0776 m -102.416721,0.15485 0.241176,0.23215 -0.241176,-0.23215 m 11.817318,0 0.241166,0.23215 -0.241166,-0.23215 m 57.639473,0 0.24118,0.23215 -0.24118,-0.23215 M 8.7491859,145.8425 v 0.23215 l 1.9293591,-0.69645 -1.9293591,0.4643 m 42.4458531,-0.69645 0.241167,0.23215 -0.241167,-0.23215 m 37.863628,0 -0.241167,0.23215 0.241167,-0.23215 m -53.941686,0.38699 0.08058,0.15462 -0.08058,-0.15462 M 142.59826,145.3782 v 0.4643 l 0.48235,-0.4643 h -0.48235 m 48.4751,0 -0.72351,0.23215 v 0.23215 l 0.96468,-0.23215 -0.24117,-0.23215 m -124.202301,0.23215 0.241176,0.23215 -0.241176,-0.23215 m 0.964684,0 0.241166,0.23215 -0.241166,-0.23215 m 51.127917,0 -0.24118,0.23215 0.24118,-0.23215 m -67.045112,0.4643 1.447018,0.92861 v -0.92861 h -1.447018 m 32.316723,-0.23215 0.482343,0.69645 -0.482343,-0.69645 m 39.551759,0 0.24117,0.23215 -0.24117,-0.23215 m 54.74551,0.46431 0.96468,-0.23216 -0.96468,0.23216 m 19.45443,-0.387 0.16062,0.0776 -0.16062,-0.0776 m -0.64321,1.3156 -0.48234,-0.4643 -0.24117,0.9286 3.13521,-0.23215 0.48234,-0.92861 c -1.17836,-0.80927 -2.16763,-0.51119 -2.89404,0.69646 m -162.548258,-1.16076 0.241167,0.23216 -0.241167,-0.23216 m 32.477586,0.0773 0.160626,0.0776 -0.160626,-0.0776 m 94.377572,-0.0773 0.24117,0.23216 -0.24117,-0.23216 m 15.43487,0 0.24116,0.23216 -0.24116,-0.23216 m -155.554354,0.23216 v 0.9286 h 0.241166 l -0.241166,-0.9286 m 12.540817,0 0.241167,0.23214 -0.241167,-0.23214 m 19.775906,0 -0.241166,0.4643 h 0.482342 l -0.241176,-0.4643 m 70.582341,0.0773 0.16062,0.0776 -0.16062,-0.0776 m 18.65037,-0.0773 -0.48235,1.16075 h 0.24117 l 0.24118,-0.69645 0.48233,0.23215 h 0.24117 v -0.23215 l -0.7235,-0.4643 m 12.29965,0.4643 -0.24118,0.23215 0.24118,-0.23215 m 9.16444,0 -0.72351,0.23215 0.24117,0.69645 h 0.48234 v -0.9286 m -104.185221,0.23215 c -0.184735,0.82622 -0.691433,0.59941 -1.447018,0.4643 v -0.23215 l 1.447018,-0.23215 m 135.054931,0 0.24116,0.23215 -0.24116,-0.23215 m 0.6432,0.0773 0.16062,0.0776 -0.16062,-0.0776 M 8.5080199,148.164 v 0.23215 l 2.4116921,-1.16076 -2.4116921,0.92861 m 58.3630391,-0.92861 0.241176,0.69645 h 0.241166 l -0.482342,-0.69645 m 36.416571,0 0.24116,0.23215 -0.24116,-0.23215 m 38.34596,0 0.24116,0.23215 -0.24116,-0.23215 m -116.48487,0.23215 -0.241176,0.23216 0.241176,-0.23216 m 79.58592,0 0.24118,0.23216 -0.24118,-0.23216 m 83.20351,0 v 1.16075 l 1.68819,-0.46429 v -0.23216 l -1.68819,-0.4643 M 12.607896,147.6997 v 0.4643 h -0.482333 v -0.4643 h 0.482333 m 51.127961,0 -0.241167,0.69645 0.241167,-0.69645 m 33.040234,0 0.482347,0.4643 v -0.4643 h -0.482347 m 1.929348,0 0.241167,0.23214 -0.241167,-0.23214 m 1.929341,0 0.24117,0.23214 -0.24117,-0.23214 m 4.82338,0 0.24116,0.23214 -0.24116,-0.23214 m -88.268035,0.23214 0.241166,0.23216 -0.241166,-0.23216 m 47.67127,0.0773 0.160617,0.0776 -0.160617,-0.0776 m 33.442017,0.0776 0.0806,0.15461 -0.0806,-0.15461 m 5.948888,-0.15485 -0.48233,1.3929 0.48233,-1.3929 m 10.3703,0 -0.72351,0.69645 0.24117,-0.69645 h 0.48234 m 64.87462,0 0.24116,0.23215 -0.24116,-0.23215 m -145.18406,0.23213 v 0.69646 h 0.241176 0.241166 l -0.482342,-0.69646 m 1.92936,0 -0.241166,0.23216 0.241166,-0.23216 m 6.993922,0 -0.241176,0.23216 0.241176,-0.23216 m 57.639508,0 0.24117,0.23216 -0.24117,-0.23216 m 0.48234,0 0.24117,0.23216 -0.24117,-0.23216 m 3.37635,0 0.24118,0.23216 -0.24118,-0.23216 m 0.6432,0.0773 0.16063,0.0776 -0.16063,-0.0776 m -15.354489,0.15485 -0.482342,0.4643 v -0.4643 h 0.482342 m 104.667549,0.9286 v 0.23215 l 2.89404,0.4643 v 0.23215 l -1.20585,0.23215 v 0.23215 h 1.44701 c 0.20259,-1.20439 0.96709,-1.54728 2.17053,-1.62505 -0.99868,-0.94927 -4.049,-0.28044 -5.30573,0.23215 m -106.355742,-0.69646 0.241175,0.23216 -0.241175,-0.23216 m 10.852618,0 -0.723507,0.69646 0.24117,-0.69646 h 0.482337 m 20.499394,0 0.24116,0.23216 -0.24116,-0.23216 m -15.19369,0.23216 0.24116,0.23215 -0.24116,-0.23215 m 12.78199,0 -0.24118,0.23215 0.24118,-0.23215 m 3.61753,0 0.24117,0.23215 -0.24117,-0.23215 m 24.5993,0 0.24117,0.23215 -0.24117,-0.23215 m 32.5579,0.23215 0.24117,0.23215 -0.24117,-0.23215 m -139.87832,0.23215 -0.241176,0.23215 0.241176,-0.23215 m 28.458012,0.69645 1.205851,-0.23215 -1.205851,0.23215 m 65.356908,-0.69645 -0.24117,0.23215 0.24117,-0.23215 m -68.733285,0.23215 0.241175,0.69645 -0.241175,-0.69645 m 60.533515,0 -0.24116,0.4643 h 0.48233 l -0.24117,-0.4643 m -55.951287,0.69645 0.964676,0.23215 -0.241167,-0.69645 -0.723509,0.4643 m 8.923273,-0.4643 -0.241167,0.23215 0.241167,-0.23215 m -31.83439,0.23215 -0.241166,0.23215 0.241166,-0.23215 m 80.550594,0 v 0.69645 l 0.48234,-0.69645 h -0.48234 m 52.57498,0 0.24117,0.69645 h 0.24117 v -0.69645 h -0.48234 m -157.644562,0.38699 0.08058,0.15462 -0.08058,-0.15462 m 102.657892,-0.15484 -0.24117,0.4643 h 0.48233 l -0.24116,-0.4643 m 0.7235,0 -0.24116,0.69646 h 0.24116 v -0.69646 m 1.28616,0.15484 0.0806,0.15462 -0.0806,-0.15462 m -109.330082,0.0773 -0.241176,0.23215 0.241176,-0.23215 m 3.939021,0.15485 0.08058,0.15461 -0.08058,-0.15461 m 1.125538,-0.15485 0.241167,0.23215 -0.241167,-0.23215 m 1.929351,0.23215 v 0.4643 h 0.482342 l -0.482342,-0.4643 m 61.498253,0 0.241176,0.23216 -0.241176,-0.23216 m 55.468959,0 v 0.69646 h 0.24117 l 0.7235,-0.4643 v -0.23216 h -0.96467 m -64.392231,0.4643 -0.482343,0.46431 v -0.46431 h 0.482343 m 47.510361,0 0.24117,0.23216 -0.24117,-0.23216 m -90.197384,0.23216 0.723508,0.69645 -0.723508,-0.69645 m 45.259578,0.0773 0.160617,0.0776 -0.160617,-0.0776 m 51.610246,0.0776 -0.0806,0.1546 0.0806,-0.1546 m 9.64678,-0.0776 0.16062,0.0776 -0.16062,-0.0776 m -71.064671,0.15485 0.241168,0.23215 -0.241168,-0.23215 m 36.979221,0.15484 0.0806,0.15462 -0.0806,-0.15462 m -65.437232,0.0773 -0.241176,0.23215 0.241176,-0.23215 m 14.711343,0 0.241167,0.23215 -0.241167,-0.23215 m 56.433649,0 0.7235,0.4643 -0.7235,-0.4643 m -80.309441,0.23215 v 0.4643 h -0.482343 l 0.482343,-0.4643 m 37.140118,0 v 0.4643 l 0.482342,-0.4643 h -0.482342 m 129.668893,0.0773 0.16062,0.0776 -0.16062,-0.0776 m 0.56264,-0.0773 v 0.92861 l -0.7235,-0.46431 c 0.2021,0.90818 1.30955,0.84155 2.17053,0.92861 -0.2448,-0.87382 -0.50115,-1.24247 -1.44703,-1.39291 m -144.460534,0.23215 0.241167,0.23215 -0.241167,-0.23215 m 110.696794,0 0.24117,0.23215 -0.24117,-0.23215 m 4.58222,0 -0.24116,0.23215 0.24116,-0.23215 m 25.16195,0.15484 0.0806,0.15462 -0.0806,-0.15462 m -103.05967,0.0773 -0.241176,0.23215 0.241176,-0.23215 m 102.49702,0 -0.48234,0.69645 0.48234,-0.69645 m -140.601823,0.23215 0.241166,0.23216 -0.241166,-0.23216 m 13.746668,0 0.241167,0.23216 -0.241167,-0.23216 m 17.846546,0 0.241176,0.23216 -0.241176,-0.23216 m 97.432469,0.23216 -0.24116,0.23214 0.24116,-0.23214 m -114.073173,0.23214 0.482342,0.46431 v -0.46431 h -0.482342 m 22.669951,0 -0.482342,0.46431 0.482342,-0.46431 m -5.546904,0.23216 0.241166,0.23215 -0.241166,-0.23215 m 38.989116,0.0773 0.16061,0.0776 -0.16061,-0.0776 m -100.728536,0.15485 0.482333,0.4643 -0.482333,-0.4643 m 21.705266,0.0773 c 0.186421,0 0.03856,0.11562 -0.0803,0.0776 l 0.0803,-0.0776 m 41.240005,-0.0773 0.241166,0.23215 -0.241166,-0.23215 m 18.811175,0 0.24118,0.23215 -0.24118,-0.23215 m 10.85264,0.4643 -0.72351,-0.4643 0.72351,0.4643 m -80.550611,-0.23215 v 0.23215 l 0.964685,0.4643 v -0.23215 l -0.964685,-0.4643 m 16.15837,0 0.241167,0.23215 -0.241167,-0.23215 m 8.682106,0 0.482334,1.16076 -1.447018,0.23214 0.964684,-1.3929 m 104.908725,0 v 0.4643 l 0.48233,-0.4643 h -0.48233 m -114.796682,0.23215 0.482342,0.69645 -0.482342,-0.69645 m 94.056092,0.4643 0.72351,-0.23215 -0.72351,0.23215 m 1.44702,-0.4643 v 0.4643 h 0.48234 l -0.48234,-0.4643 m 43.89287,0.4643 0.96468,-0.23215 -0.96468,0.23215 m -125.408147,-0.23215 0.241176,0.23215 -0.241176,-0.23215 m 43.892827,0 v 0.69646 h 0.24117 l 0.24117,-0.69646 h -0.48234 m 52.25349,0.0773 0.16062,0.0776 -0.16062,-0.0776 m 1.04499,-0.0773 1.20584,0.9286 -1.20584,-0.9286 m 1.52732,0.15484 0.0806,0.15463 -0.0806,-0.15463 m 3.37638,0 0.0806,0.15463 -0.0806,-0.15463 m -154.911152,1.23807 c 1.583526,0.46197 3.359734,0.24398 4.341054,-1.16077 h -0.964676 -1.447018 l -0.482342,0.92861 v -0.92861 l -1.447018,1.16077 m 88.911252,-1.08345 0.16062,0.0776 -0.16062,-0.0776 m 7.31539,-0.0773 0.24116,0.23216 -0.24116,-0.23216 m 33.76373,0 0.96467,0.69646 v -0.23215 l -0.96467,-0.46431 m 11.57614,0 0.24116,0.23216 -0.24116,-0.23216 m -69.456794,0.23216 v 0.23215 l 0.964675,0.23215 v -0.23215 l -0.964675,-0.23215 m 7.476264,0.92861 -1.688193,0.92859 -0.964676,1.16077 0.964676,-0.23217 c -0.05934,1.48508 1.422425,1.43192 2.652869,1.62507 l -1.205852,0.69646 -3.376368,2.08936 7.958597,-0.46431 -0.241175,-0.69646 0.964686,-0.23214 V 160.468 l -1.688195,0.23216 2.894999,-2.62099 2.651885,-1.55773 -0.723507,-0.69645 -1.205841,0.92859 -0.723507,-0.4643 h -1.929345 l 0.241167,0.4643 h -0.241167 l -0.241175,-0.92859 h -1.205842 v -0.46431 l -0.723509,0.23215 v -0.69645 l -2.170527,0.92861 m 7.958579,-0.92861 0.723507,0.69645 -0.723507,-0.69645 m 88.750371,0 0.24117,0.23215 -0.24117,-0.23215 m 3.85872,0 -0.72351,0.92861 0.72351,-0.92861 m -89.95624,0.23215 0.48233,0.69646 -0.48233,-0.69646 m 4.34103,0.69646 0.96469,0.46429 0.48233,-1.16075 -1.44702,0.69646 m 38.58713,-0.69646 v 0.23215 h 0.7235 l -0.7235,-0.23215 m -44.134,0.23215 0.24116,0.23215 -0.24116,-0.23215 m 7.47623,0 0.24117,0.23215 -0.24117,-0.23215 m 0.48234,0 v 0.46431 l 0.48234,-0.46431 h -0.48234 m 72.35087,0 0.24118,0.9286 h 0.24116 l 0.24117,-0.9286 h -0.72351 m -73.79788,0.23215 -0.24118,0.23216 0.24118,-0.23216 m -57.639497,0.23216 0.241166,0.23214 -0.241166,-0.23214 m 2.894035,0.69645 0.723509,-0.69645 -0.723509,0.69645 m 128.141312,-0.54162 0.0806,0.15463 -0.0806,-0.15463 m -126.935469,0.0773 v 0.23215 h 0.723508 l -0.723508,-0.23215 m 142.772359,0.92861 0.96467,-0.69646 -0.96467,0.69646 m -22.91112,-0.23216 0.24117,0.23216 -0.24117,-0.23216 m 5.06457,0 0.48234,0.46431 v -0.46431 h -0.48234 m -110.455633,0.23216 0.241176,0.23215 -0.241176,-0.23215 m 115.520193,0.23215 v 0.23215 l 1.20585,-0.23215 h -1.20585 m -78.13894,0 -0.24118,0.46429 0.24118,-0.46429 m 38.02448,0.0773 0.16061,0.0776 -0.16061,-0.0776 m 35.7734,-0.0773 0.24118,0.23215 -0.24118,-0.23215 m -145.184049,0.46429 0.241175,0.23217 -0.241175,-0.23217 m 1.205851,0 0.241167,0.23217 -0.241167,-0.23217 m 127.337508,0 v 0.23217 h 0.96467 v -0.23217 h -0.96467 m 21.70526,1.16076 -1.44701,1.16077 4.58222,-1.62507 v -0.23215 h -1.92937 c -0.62969,-0.61148 -1.0105,0.0712 -1.20584,0.69645 M 34.071993,157.91439 v 0.46429 h 0.482343 l -0.482343,-0.46429 m -5.546904,0.30945 0.0803,0.0776 c -0.118897,0.0381 -0.266735,-0.0776 -0.0803,-0.0776 m 7.395951,0 0.160617,0.0776 -0.160617,-0.0776 m 15.515166,-0.0773 0.241167,0.23214 -0.241167,-0.23214 m 15.193686,0 0.241167,0.23214 -0.241167,-0.23214 m 118.414218,0 v 0.23214 h -0.48233 v 0.23216 l 1.20584,-0.23216 v 0.23216 l -1.44701,0.69645 v -0.92861 l 0.24117,-0.23214 h 0.48233 m -165.201128,0.23214 0.241176,0.46431 h 0.241166 l 0.241168,-0.46431 h -0.72351 m 30.146206,0 -0.482342,0.23216 1.205851,0.23215 -0.241167,0.69645 c 0.368258,-0.62054 0.141321,-0.82692 -0.482342,-1.16076 m 88.991532,0 -1.44701,0.92861 1.68818,-0.69645 -0.24117,-0.23216 m -99.602998,0.69645 c 0.793931,1.30353 2.653589,0.79118 3.85872,0.23216 v -0.23216 l -0.723509,0.23216 c -0.738467,-0.92186 -2.085401,-0.19407 -3.135211,-0.23216 m -1.447018,-0.23214 0.241176,0.9286 -0.723509,-0.23215 -0.723509,0.4643 -0.241176,1.39291 1.92936,0.92861 -1.688184,0.23214 c 0.548655,1.50063 3.249277,0.31922 4.58222,0.23216 v -0.23216 l -1.205851,-0.23214 1.205851,-1.62507 -2.652869,-0.46429 0.482342,-1.16077 -1.205851,-0.23214 m 29.905039,0 0.241166,0.23214 -0.241166,-0.23214 m 81.997617,0 -0.24118,0.69645 -0.48233,-0.46431 -0.24117,0.69646 -0.72351,-0.23215 v 0.9286 l 2.89404,-0.23214 -0.72351,1.8572 h -0.24118 -0.96467 c 2.29327,0.95136 3.89368,0.76239 6.27041,0.69646 l -0.24118,-0.69646 -3.61754,-0.4643 1.20585,-0.92861 v -0.9286 h -0.24117 l -0.24117,0.46431 h -0.24117 l -0.24117,-0.92861 -1.92935,-0.4643 m -137.707797,0.23214 -0.723509,1.16077 c 1.0117,-0.0896 1.613423,-0.1646 1.929351,-1.16077 h -1.205842 m 23.634615,0.46431 h 0.964684 -0.964684 m 142.772362,-0.4643 v 0.46431 h 0.48234 l -0.48234,-0.46431 m -151.213294,0.23216 0.72351,1.3929 -1.205852,0.23216 -0.241166,-0.23216 0.723508,-1.3929 m 11.334967,0 -0.241167,0.23215 0.241167,-0.23215 m -9.566469,0.387 0.08058,0.1546 -0.08058,-0.1546 m 20.177935,-0.15485 v 0.23215 h 0.964676 l -0.964676,-0.23215 m 31.191195,0.15485 0.08058,0.1546 -0.08058,-0.1546 m 2.572555,-0.15485 0.241167,0.23215 -0.241167,-0.23215 m -47.751585,0.23215 0.241167,0.23215 -0.241167,-0.23215 m 0.482334,0 v 0.69645 h 0.241176 l -0.241176,-0.69645 m 43.892874,0 v 0.4643 l 0.482342,-0.4643 h -0.482342 m 13.264335,0.4643 v 0.23215 h -1.447018 l 0.241167,-0.69645 1.205851,0.4643 m -55.227849,-0.23215 -0.241167,0.23215 0.241167,-0.23215 m 15.193685,0 v 0.23215 l 0.964676,0.23215 v -0.23215 l -0.964676,-0.23215 m 100.085327,0 0.24119,0.23215 -0.24119,-0.23215 m 17.12306,0 -1.20586,1.16075 -1.20585,-0.4643 c 0.32751,2.39024 3.25965,2.60265 5.30573,2.32152 l -1.44701,-0.92861 1.20585,-1.39291 -2.65286,-0.69645 m -131.437397,0.23215 -0.482333,0.69646 0.482333,-0.69646 m 46.545743,0 -0.723509,0.9286 0.723509,-0.9286 m 2.894035,0 v 0.23215 l 1.688185,0.23215 -1.688185,-0.4643 m 48.475039,0.23215 0.48233,0.46431 v -0.46431 h -0.48233 m -59.810014,0.23215 v 0.69646 h -0.241167 l -1.92936,-0.4643 v 0.69645 h -0.241166 l -0.482342,-0.69645 -0.241166,0.69645 -0.964686,-0.23215 -0.482332,1.16075 -0.72351,-0.23214 -0.241175,0.92859 2.170527,0.46431 v 0.23215 l -1.929352,1.3929 -0.723508,-0.69645 c 0.584349,1.69494 4.053819,1.05745 5.064562,0 l -1.688194,0.23215 2.170527,-2.55365 h -1.205842 c 1.132046,-0.4599 2.63092,-0.18527 3.135202,-1.39291 l -0.964675,0.4643 -0.482343,-0.69646 m 57.157134,0 -0.24116,0.23216 0.24116,-0.23216 m 0.72352,0 v 0.4643 l -0.48234,-0.4643 h 0.48234 m 1.44701,0 0.24118,0.23216 -0.24118,-0.23216 m -116.484864,0.23216 0.723508,0.69645 -0.723508,-0.69645 m 1.205851,0 0.241167,0.23214 -0.241167,-0.23214 m 0.964675,0 0.241167,0.23214 -0.241167,-0.23214 m 104.908728,0 -0.24116,0.69645 h -0.72352 v 0.23215 h 1.92936 l -0.96468,-0.9286 m 1.44701,0 0.24117,0.23214 -0.24117,-0.23214 m -73.556672,0.23214 c 0.493673,1.37016 2.407601,1.58374 3.555078,2.33522 0.937431,0.61381 1.620907,1.64896 2.715335,2.05941 0.948761,0.35565 1.703625,-0.28462 1.688184,-1.1445 l -1.447018,0.69644 v -1.3929 c -1.094428,0.0657 -1.871953,0.0787 -2.411692,-0.92861 l 1.447018,0.4643 0.241166,-0.69645 c 0.97987,0.39953 1.992546,0.74799 2.652868,-0.23214 l -3.85871,-0.92861 0.241166,0.92861 -0.964675,-0.46431 -0.964685,0.46431 0.241176,-0.92861 -0.723509,-0.23216 -0.482342,0.46431 -1.92936,-0.46431 m -14.470177,0.30946 0.0803,0.0776 c -0.118896,0.0381 -0.266734,-0.0776 -0.0803,-0.0776 m 63.668739,0.15485 0.24117,0.23215 -0.24117,-0.23215 m 19.53472,0.23215 -0.7235,0.46431 v 0.23214 l 1.20584,-0.4643 -0.48234,-0.23215 m -20.25823,0.69645 c 0.57784,0.13349 0.59979,0.11027 0.72351,-0.4643 l -0.72351,0.4643 m -77.656574,0.46431 v 0.23214 l 2.411694,-0.69645 -2.411694,0.46431 m 45.098717,0.23214 h 0.241176 l 0.482333,-0.69645 -0.723509,0.69645 m 20.499424,0 c 1.759573,0.0539 4.555695,1.79197 5.305727,-0.69645 h -0.24116 l -0.723514,0.23215 v 0.23216 l 0.482344,0.4643 -1.205853,-0.92861 h -0.241166 l -0.241176,0.69645 -0.241167,-0.69645 -0.723509,0.46431 0.241167,-0.69645 -2.411693,0.92859 m 87.544513,0 h 0.24116 l 0.72352,-0.69645 -0.96468,0.69645 m -139.154818,-0.69645 -0.241167,0.23215 0.241167,-0.23215 m 95.503108,0 -0.24116,0.23215 0.24116,-0.23215 m 39.55182,0.69645 1.20586,-0.4643 -1.20586,0.4643 m -131.196208,-0.4643 -0.241176,0.69646 0.241176,-0.69646 m 5.064562,0.4643 0.723509,-0.23214 -0.723509,0.23214 m 74.280186,-0.4643 0.24117,0.23216 -0.24117,-0.23216 m 38.34596,0 0.24118,0.23216 -0.24118,-0.23216 m 22.18761,0.23216 c 0.71723,0.45269 1.386,0.74937 1.92935,0 h -1.92935 m -137.948967,1.16075 1.688193,-0.92861 c -0.961303,-0.20637 -1.399992,0.0141 -1.688193,0.92861 m 57.639497,-1.16075 v 0.4643 h 0.7235 v -0.4643 h -0.7235 m 20.4994,0 0.24118,0.23214 -0.24118,-0.23214 m 4.34106,0 -0.24117,0.23214 0.24117,-0.23214 m -81.515273,0.23214 -0.482342,0.46431 0.482342,-0.46431 m 59.810013,0.23216 v 0.4643 l 0.72352,0.23215 0.24116,-0.69645 h -0.96468 m 10.85264,-0.23216 -0.24117,0.69646 -0.72352,-0.4643 -0.48233,1.16075 -0.48234,-0.4643 c -0.8781,0.0668 -1.39107,0.0604 -1.68818,0.9286 l -1.6882,0.69645 -2.17053,-0.69645 2.41171,2.08936 c 1.47331,-0.7452 2.62971,0.49379 4.09987,0.69645 l 1.20585,-1.3929 -2.89403,-0.69646 3.37638,-2.3215 -0.72351,-0.23216 m -66.803942,0.23216 v 0.4643 h 0.482342 v -0.4643 h -0.482342 m 39.712684,0.0773 0.160616,0.0776 -0.160616,-0.0776 m 14.068098,-0.0773 0.24117,0.23215 -0.24117,-0.23215 m -35.693061,0.23215 0.241168,0.23215 -0.241168,-0.23215 m 11.334976,0 0.241167,0.23215 -0.241167,-0.23215 m 11.334975,0.4643 -0.964684,0.23216 -1.447018,0.23214 c 1.25891,1.79035 3.245668,0.90679 5.064562,0.69645 -0.563612,-1.02401 -1.295798,-0.98733 -2.411693,-0.92859 v -0.23216 l 0.482342,-0.4643 -0.723509,0.4643 m 14.47013,-0.4643 0.24117,0.23215 -0.24117,-0.23215 m 73.55671,0 v 0.4643 h 0.48235 v -0.4643 h -0.48235 m -149.525102,0.23215 -0.723509,0.9286 c 0.662975,-0.1386 1.155445,-0.27997 0.723509,-0.9286 m 9.164448,0.23215 v 0.23216 h 0.964676 l -0.964676,-0.23216 m 3.135203,-0.23215 v 0.46431 h 0.482342 l -0.482342,-0.46431 m 118.896571,0 0.72351,0.69645 -0.72351,-0.69645 m -56.19252,0.46431 0.72352,0.92859 -0.48234,-0.4643 v -0.23215 h 0.96468 l -1.20586,-0.23214 m -79.10358,0 c 0.148075,0.66186 0.314242,0.66255 0.964676,0.46429 l -0.964676,-0.46429 m 146.3899,0.23214 0.48234,0.92861 1.92935,-0.23216 v -0.69645 h -2.41169 m -48.23393,0.4643 0.24118,0.23215 -0.24118,-0.23215 m 25.80516,0 0.48233,0.69645 -1.44701,0.46431 c 1.20367,0.72803 3.28666,1.14242 3.85871,-0.46431 l -0.72351,-0.69645 h -0.24116 l -0.24119,0.46431 -1.68817,-0.46431 m -115.037857,0.23215 0.241167,0.23216 -0.241167,-0.23216 m -0.723509,0.23216 0.241167,0.23214 -0.241167,-0.23214 m 48.475094,0 0.241167,0.23214 -0.241167,-0.23214 m 0.482343,0 0.241166,0.23214 -0.241166,-0.23214 m -23.39346,0.4643 c 0.755831,0.87359 1.548068,1.10504 2.411702,0.23215 l -2.411702,-0.23215 m 65.356919,-0.23216 0.24116,0.23216 -0.24116,-0.23216 m 1.92935,0 v 0.69646 l 0.48234,-0.23215 v -0.23215 l -0.48234,-0.23216 m 19.0524,0.23216 0.24117,0.23215 -0.24117,-0.23215 m -77.415387,0.23215 0.241166,0.23215 -0.241166,-0.23215 m 5.064562,0 v 0.23215 l 1.205842,0.46431 -1.205842,-0.69646 m 26.528641,2.32151 2.170514,-0.23215 -0.48234,-0.46431 v -0.23214 -0.23216 c 0.43723,-0.36122 0.43723,-0.56737 0,-0.9286 l -0.48234,0.69645 0.24117,-0.9286 -1.447004,2.32151 m 43.892834,-2.32151 c 0.52671,0.85477 1.13229,1.23945 2.17052,1.16075 l -0.24117,-0.69645 -1.92935,-0.4643 m -103.300853,0.30946 0.160616,0.0776 -0.160616,-0.0776 m 63.507863,-0.0773 0.24118,0.23215 -0.24118,-0.23215 m 20.17794,0.0773 0.16061,0.0776 -0.16061,-0.0776 m -36.095081,0.61914 1.688194,-0.23214 -1.688194,0.23214 m 20.017031,-0.4643 0.24117,0.23216 -0.24117,-0.23216 m -68.009782,0.23216 0.241166,0.23214 -0.241166,-0.23214 m 32.316723,0 -1.205842,0.69645 -0.241176,0.9286 2.894036,0.46431 c -0.33064,0.51908 -2.04174,1.09134 -1.949368,1.58326 0.102735,0.54556 1.289773,0.63308 1.729904,0.68694 1.463416,0.17967 3.912253,0.14857 4.801692,-1.10945 l -0.723508,0.4643 -1.205852,-0.9286 0.964676,0.23214 v -0.23214 l -2.170527,-0.46431 1.205851,-0.9286 v -0.69645 c -0.84988,-0.18457 -2.175831,-0.82182 -2.411692,0.23214 l -1.688194,-0.92859 m 43.651659,0 -0.24117,0.23214 0.24117,-0.23214 m 52.09262,0.92859 1.68819,0.92861 h 0.24117 l -0.24117,-1.8572 -1.68819,0.92859 m -127.337494,-0.69645 0.241167,0.23215 -0.241167,-0.23215 m 80.791764,0.46431 0.24117,0.23214 -0.24117,-0.23214 m 38.1048,0 0.24116,0.23214 -0.24116,-0.23214 m -120.343582,0.23214 1.929351,0.69646 v -0.4643 l -1.929351,-0.23216 m 23.634617,0 c 0.380573,1.0918 1.34935,0.84085 1.92936,0 h -1.92936 m 13.987844,0 0.241167,0.23216 -0.241167,-0.23216 m -47.99276,0.23216 v 0.23215 c 0.815398,0.37004 1.394688,0.55251 1.92936,-0.23215 h -1.92936 m 126.855171,0.4643 v 0.23215 l 1.20584,-0.23215 h -1.20584 m -65.598084,0 -0.964676,0.69645 c 0.606782,1.1582 1.426518,1.14358 2.652869,0.92861 l -0.723509,-1.62506 h -0.964684 m -39.069479,0.23215 0.241166,0.23216 -0.241166,-0.23216 m 45.339897,0 c -1.176187,1.08786 -2.292801,1.27359 -3.858716,1.16075 l -0.482342,1.62506 -1.447018,-0.23215 -0.241167,1.16076 c 2.10179,0.38119 3.442207,0.5943 5.30211,-0.6015 0.895463,-0.57574 1.612457,-1.19884 0.968293,-2.18431 l 1.447011,-0.23216 -1.688171,-0.69645 m 24.116896,0.69645 1.20585,-0.46429 -1.20585,0.46429 m 56.43369,-0.69645 v 0.4643 h 0.48235 v -0.4643 h -0.48235 m -126.855158,0.69645 0.723508,-0.46429 -0.723508,0.46429 m 54.021948,0.23216 1.68819,-0.46431 -1.68819,0.46431 m 3.61755,-0.69645 0.7235,0.46429 v -0.23215 l -0.7235,-0.23214 m 0.96467,0 v 0.23214 h 0.72351 l -0.72351,-0.23214 m 22.66993,0 -1.44701,1.16075 h 2.41169 l -0.24117,1.16075 -0.48234,-0.46431 -0.48233,0.92862 -1.92936,-0.46431 -0.24117,1.16076 4.34106,-0.46431 -0.48235,-1.3929 0.96468,0.23214 0.48233,-1.3929 -1.92935,-0.46429 h -0.24117 -0.72351 m -73.556677,0.23214 -0.482333,0.69645 2.170527,0.9286 c -0.298573,-0.95645 -0.634765,-1.45998 -1.688194,-1.62505 m 37.140128,0 -0.723509,0.23215 v 0.23216 l 0.964676,-0.23216 -0.241167,-0.23215 m 29.261769,0.15485 0.0806,0.15461 -0.0806,-0.15461 m -18.89152,0.5416 v 0.9286 h 0.24117 l -0.24117,-0.9286 m 1.20585,0 0.24116,0.23216 -0.24116,-0.23216 m -0.72351,1.16077 0.24116,0.23214 -0.24116,-0.23214 m 65.35695,0 c 0.55999,0.6781 1.27989,1.35552 1.92936,0.46429 l -1.92936,-0.46429 m -55.22783,0.46429 0.72351,0.92861 -0.72351,-0.92861 m -23.875744,0.30946 c 0.186421,0 0.03856,0.1156 -0.0803,0.0776 l 0.0803,-0.0776 m -18.570064,0.8513 v 0.23214 l 1.688184,-0.69645 -1.688184,0.46431 m 29.904988,-0.23215 0.24117,0.23215 -0.24117,-0.23215 m 0.48233,0.23215 v 0.23214 l 0.96469,-0.46429 -0.96469,0.23215 m -57.639489,1.85721 2.411703,-1.62507 c -1.038243,-0.1553 -1.931776,0.81974 -2.411703,1.62507 m 7.23509,-1.85721 1.447017,0.9286 -1.447017,-0.9286 m 61.498209,0.23214 v 0.23217 c 1.14773,0.56319 2.74137,1.5944 3.61754,0.23214 l -3.61754,-0.46431 m -10.12912,0.69646 1.44701,-0.46429 -1.44701,0.46429 m -2.41169,-0.46429 -0.7235,0.9286 0.7235,-0.9286 m 31.35203,0 -0.72352,0.9286 c 1.00786,0.19988 1.50732,0.0678 2.17053,-0.69646 l -1.44701,-0.23214 m -30.14619,0.23214 -0.24117,0.46431 h 0.48233 l -0.24116,-0.46431 m -30.628501,0.23215 -1.205842,0.23216 c 0.848194,0.83364 1.771387,0.72152 2.894036,0.46429 v -0.23214 l -1.688194,-0.46431 m 38.345931,0 -1.20585,1.3929 3.37638,-0.23214 -0.48235,-0.9286 -1.20585,-0.23216 0.48235,0.92861 -0.96468,-0.92861 m 22.42876,0 -0.24117,0.23216 0.24117,-0.23216 m -72.591999,0.69645 v 0.46431 c 1.026658,0.2463 1.69349,0.0515 2.411694,-0.69645 l -2.411694,0.23214 m 27.25217,1.16076 2.411693,-0.69645 c -0.961776,-0.51561 -1.835054,-0.16391 -2.411693,0.69645 m 46.063339,-0.69645 0.48234,1.39291 1.20585,-0.23216 -1.68819,-1.16075 m 12.54082,0.46431 -0.48234,0.69644 v 0.23216 h 2.4117 l -0.24118,0.69645 1.92937,0.4643 -3.61755,-2.08935 m -70.421476,0.9286 2.411702,-0.23216 c -0.795618,-0.51235 -1.787793,-0.51212 -2.411702,0.23216 m 56.915976,0 0.96468,-0.23216 -0.96468,0.23216 m -0.40203,-0.0773 0.0806,0.15462 -0.0806,-0.15462 m -4.42137,0.30946 -0.24117,1.16076 4.34106,1.16075 -2.41169,-2.08936 -0.72351,-0.23215 -0.72351,0.92861 -0.24118,-0.92861 m -36.416548,0.23215 -0.241166,0.69646 -0.964676,-0.4643 -0.241176,1.16075 h 2.894036 l -1.447018,-1.39291 m 58.362998,0 1.20584,0.69646 -1.20584,-0.69646 m -52.092598,1.62506 v 0.23215 c 0.952854,0.24677 1.373221,0.0866 1.929348,-0.69645 l -1.929348,0.4643 m 17.846518,0.4643 c 0.51851,0.48172 0.77294,0.59431 1.20585,0 h -1.20585 m -47.992711,0.23216 -0.723508,0.4643 v 0.4643 l 1.447018,0.46431 v -0.23216 l -0.72351,-1.16075 m 43.169311,0.23214 0.96468,1.39291 h 0.24118 l -1.20586,-1.39291 m -38.587091,2.08936 h 1.92936 c -0.749077,-0.50145 -1.246367,-0.61217 -1.92936,0 m 63.186391,0.4643 -1.68819,0.46431 v 0.23215 l 1.92935,0.23215 -0.24116,-0.92861 m -40.998782,0.92861 -0.964676,1.16075 1.447018,-0.92859 -0.482342,-0.23216 m 1.688193,0.23216 -0.723507,0.92859 0.723507,-0.92859 m 28.216779,1.62505 1.6882,0.9286 -1.6882,-0.9286 m -40.516439,1.85721 -0.723509,1.16075 1.205852,-1.16075 h -0.482343 m 26.528619,0 0.96468,0.9286 -0.96468,-0.9286 m -24.840425,36.21554 c -1.85942,0.13813 -2.084189,1.83376 -3.186575,3.00774 -1.170156,1.2462 -2.969043,1.71676 -4.66977,1.46744 -7.249563,-1.06256 -8.390533,-13.20244 -2.272779,-16.33369 1.949367,-0.99778 4.876691,-0.79929 6.460207,0.75891 1.106005,1.08832 1.145318,2.60844 2.945408,2.74216 0,-1.16749 0.271073,-3.36108 -0.661289,-4.27089 -0.563613,-0.55019 -1.737151,-0.39071 -2.473922,-0.5149 -2.902714,-0.48961 -5.481541,-0.86151 -8.199764,0.58502 -3.683866,1.96028 -4.917691,5.98509 -4.819777,9.77239 0.0984,3.81192 2.618624,7.33783 6.507961,8.40642 4.646381,1.27684 10.252843,-0.31038 10.3703,-5.6206 m 37.863565,-13.595 c -12.06932,1.82958 -9.54958,21.11599 2.99629,19.29685 11.63716,-1.68727 8.79473,-21.08418 -2.99629,-19.29685 M 43.477608,227.0954 v 0.9286 h 6.752747 v -0.9286 c -3.015102,-0.15902 -2.33283,-3.66636 -0.566985,-5.19949 0.711686,-0.61775 2.096968,-0.37214 2.978687,-0.37214 2.779477,0 6.188888,0.71502 5.736699,4.40646 -0.143982,1.17492 -1.749201,1.01961 -2.119155,2.09377 h 7.717422 c -0.405402,-1.18837 -1.949614,-1.5582 -2.574725,-2.78604 -1.943826,-3.81726 -3.413276,-7.92495 -5.142697,-11.83947 -0.364648,-0.8253 -1.406027,-4.65253 -2.79685,-3.89132 -1.032446,0.56483 -1.419764,2.67113 -1.853869,3.65917 -1.486568,3.38429 -2.902959,6.80295 -4.320791,10.21464 -0.811542,1.95309 -1.338256,3.65685 -3.810483,3.71442 M 23.460527,209.45191 v 0.92861 c 0.952142,0.0806 2.021249,0.24839 2.493218,1.16493 0.505002,0.98108 0.159651,2.64025 0.159651,3.71024 0,3.14541 0.790313,7.42558 -0.138194,10.44331 -0.431453,1.40242 -2.08274,1.07161 -2.514675,2.32499 3.958557,0 9.395971,0.93464 13.023159,-0.82599 5.047927,-2.45035 1.614872,-7.63452 -1.92935,-9.1565 3.307641,-1.1127 4.618151,-5.7801 1.196435,-7.68304 -3.298717,-1.83423 -8.618192,-0.90655 -12.290244,-0.90655 m 68.733351,0 v 0.92861 c 1.03076,0.09 2.094799,0.36122 2.507438,1.39731 0.445435,1.11851 0.145422,2.75865 0.145422,3.94215 0,3.01542 0.746424,7.07829 -0.104669,9.97902 -0.3193,1.08832 -1.26107,1.34114 -2.307024,1.39639 v 0.9286 h 7.958565 v -0.9286 c -1.163154,-0.0613 -2.204028,-0.43134 -2.548175,-1.62599 -0.3837,-1.33115 -0.10467,-3.03583 -0.10467,-4.40994 0,-2.7475 -0.662727,-6.41131 0.13819,-9.05273 0.328717,-1.08508 1.203431,-1.46255 2.273495,-1.62621 v -0.92861 h -7.958572 m 11.093752,0 v 0.92861 c 3.71883,0.57108 -2.36514,5.26867 -3.616317,6.50022 -0.485227,0.47754 -1.304471,1.09784 -1.127214,1.85721 0.21922,0.93882 1.417584,1.85837 2.053301,2.55366 1.69734,1.85605 3.32571,3.78522 5.10192,5.57162 -0.94514,0.12606 -1.61462,0.23889 -1.92935,1.16076 h 7.9586 v -0.9286 c -3.42727,-0.29715 -5.98487,-4.4234 -8.06086,-6.73238 -0.62728,-0.69762 -2.12661,-1.76551 -2.08008,-2.78581 0.0429,-0.93557 1.31871,-1.93614 1.94478,-2.55367 2.04392,-2.01693 4.09483,-4.57871 7.23148,-4.64301 -0.60197,-1.74601 -5.80761,-0.92861 -7.47626,-0.92861 m 36.89894,0 v 0.92861 c 3.70051,0.16552 2.65286,4.61863 2.65286,7.19668 0,4.24952 -0.48644,9.65098 5.06456,10.79084 1.07176,0.22008 2.28581,0.16204 3.37638,0.11096 6.96281,-0.32616 6.27041,-7.51448 6.27041,-12.29471 0,-2.22285 -0.68082,-5.47203 2.4117,-5.80377 v -0.92861 h -6.27042 v 0.92861 c 3.05972,0.16134 2.41171,3.1519 2.41171,5.33946 0,3.90548 1.00085,11.79142 -5.30575,11.57668 -6.14741,-0.20917 -5.06455,-7.60016 -5.06455,-11.57668 0,-2.38465 -0.64682,-5.26263 2.65286,-5.33946 v -0.92861 h -8.19976 m 25.80514,0 -0.48233,4.87517 h 1.44702 c 0.68636,-3.15841 2.44545,-3.71442 5.5469,-3.71442 v 12.07186 c 0,2.14345 0.25901,4.05544 -2.41169,4.41087 v 0.9286 h 7.71742 v -0.9286 c -2.62513,-0.22937 -2.4117,-2.12465 -2.4117,-4.17872 v -12.30401 c 1.39926,0.004 3.22059,-0.0306 4.28679,0.98154 1.07416,1.0196 0.71772,2.5987 2.46596,2.73288 l -0.24117,-4.87517 h -15.9172 m -41.24,0.77283 c 8.36811,-0.69366 8.88517,16.47274 1.20585,17.08121 -9.24716,0.73244 -9.93281,-16.35806 -1.20585,-17.08121 m -95.744279,7.5846 c 0,-1.64966 -0.706144,-5.24637 0.284335,-6.63162 0.732196,-1.02426 3.33176,-0.65722 4.253276,-0.0801 2.290143,1.43492 1.817691,5.9765 -0.920304,6.58891 -1.154479,0.25816 -2.438956,0.12281 -3.617307,0.12281 m 24.11696,-4.64302 2.894034,7.19668 h -5.78807 l 2.894036,-7.19668 m -24.11696,5.80378 c 1.254079,0 2.629954,-0.15044 3.858711,0.1228 3.328624,0.7408 4.25014,5.57557 1.204648,7.28537 -1.099734,0.61775 -3.933719,1.242 -4.815438,-0.0522 -1.037751,-1.52314 -0.247921,-5.55143 -0.247921,-7.35594 m 156.544339,5.97718 c -1.9882,0.7726 -0.89184,3.89689 1.17595,3.1677 2.11144,-0.74474 0.91163,-3.97907 -1.17595,-3.1677 z"
       id="path24" />
  </g>
</svg>
