<svg width="38" height="40" viewBox="0 0 38 40" fill="none" xmlns="http://www.w3.org/2000/svg">
<path d="M19 3.75C15.9468 3.75 12.9621 4.70305 10.4234 6.48862C7.88471 8.27419 5.90604 10.8121 4.73762 13.7814C3.56919 16.7507 3.26347 20.018 3.85913 23.1702C4.45479 26.3224 5.92507 29.2179 8.08405 31.4905C10.243 33.7631 12.9937 35.3107 15.9883 35.9378C18.9829 36.5648 22.0868 36.243 24.9077 35.013C27.7285 33.7831 30.1395 31.7003 31.8358 29.028C33.5321 26.3557 34.4375 23.2139 34.4375 20C34.4324 15.6919 32.8043 11.5618 29.9103 8.51545C27.0163 5.46915 23.0927 3.75538 19 3.75ZM12.4688 21.875C12.1165 21.875 11.7721 21.765 11.4791 21.559C11.1862 21.353 10.9579 21.0601 10.8231 20.7175C10.6883 20.3749 10.653 19.9979 10.7217 19.6342C10.7905 19.2705 10.9601 18.9364 11.2092 18.6742C11.4583 18.412 11.7757 18.2334 12.1213 18.161C12.4668 18.0887 12.8249 18.1258 13.1504 18.2677C13.4759 18.4096 13.7541 18.65 13.9498 18.9583C14.1455 19.2666 14.25 19.6292 14.25 20C14.25 20.4973 14.0623 20.9742 13.7283 21.3258C13.3942 21.6775 12.9412 21.875 12.4688 21.875ZM19 21.875C18.6477 21.875 18.3033 21.765 18.0104 21.559C17.7175 21.353 17.4892 21.0601 17.3543 20.7175C17.2195 20.3749 17.1843 19.9979 17.253 19.6342C17.3217 19.2705 17.4914 18.9364 17.7405 18.6742C17.9896 18.412 18.307 18.2334 18.6525 18.161C18.998 18.0887 19.3562 18.1258 19.6817 18.2677C20.0071 18.4096 20.2853 18.65 20.4811 18.9583C20.6768 19.2666 20.7813 19.6292 20.7813 20C20.7813 20.4973 20.5936 20.9742 20.2595 21.3258C19.9255 21.6775 19.4724 21.875 19 21.875ZM25.5313 21.875C25.179 21.875 24.8346 21.765 24.5416 21.559C24.2487 21.353 24.0204 21.0601 23.8856 20.7175C23.7508 20.3749 23.7155 19.9979 23.7842 19.6342C23.853 19.2705 24.0226 18.9364 24.2717 18.6742C24.5208 18.412 24.8382 18.2334 25.1838 18.161C25.5293 18.0887 25.8874 18.1258 26.2129 18.2677C26.5384 18.4096 26.8166 18.65 27.0123 18.9583C27.208 19.2666 27.3125 19.6292 27.3125 20C27.3125 20.4973 27.1248 20.9742 26.7908 21.3258C26.4567 21.6775 26.0037 21.875 25.5313 21.875Z" fill="white"/>
</svg>
